<svg width="221" height="223" xmlns="http://www.w3.org/2000/svg" xmlns:xlink="http://www.w3.org/1999/xlink" xml:space="preserve" overflow="hidden"><defs><filter id="fx0" x="-10%" y="-10%" width="120%" height="120%" filterUnits="userSpaceOnUse" primitiveUnits="userSpaceOnUse"><feComponentTransfer color-interpolation-filters="sRGB"><feFuncR type="discrete" tableValues="0 0"/><feFuncG type="discrete" tableValues="0 0"/><feFuncB type="discrete" tableValues="0 0"/><feFuncA type="linear" slope="0.4" intercept="0"/></feComponentTransfer><feGaussianBlur stdDeviation="6.11111 6.11111"/></filter><clipPath id="clip1"><rect x="2091" y="872" width="221" height="223"/></clipPath></defs><g clip-path="url(#clip1)" transform="translate(-2091 -872)"><g filter="url(#fx0)" transform="translate(2090 871)"><g><path d="M20 112.25C20 61.1635 60.966 19.7499 111.5 19.7499 162.034 19.7499 203 61.1635 203 112.25 203 163.336 162.034 204.75 111.5 204.75 60.966 204.75 20 163.336 20 112.25Z" fill="#FFFFFF" fill-rule="evenodd"/></g></g><path d="M2110 969.5C2110 918.414 2150.97 877 2201.5 877 2252.03 877 2293 918.414 2293 969.5 2293 1020.59 2252.03 1062 2201.5 1062 2150.97 1062 2110 1020.59 2110 969.5Z" fill="#FFFFFF" fill-rule="evenodd"/><g><g><g><path d="M2173.5 976.875C2172.85 976.877 2172.21 976.695 2171.66 976.349 2171.11 976.003 2170.67 975.508 2170.39 974.921 2170.11 974.334 2170 973.68 2170.07 973.034 2170.15 972.388 2170.41 971.777 2170.82 971.272L2204.85 936.209C2205.11 935.915 2205.45 935.716 2205.84 935.645 2206.22 935.574 2206.62 935.635 2206.96 935.819 2207.3 936.003 2207.57 936.298 2207.73 936.657 2207.88 937.015 2207.91 937.415 2207.81 937.791L2201.21 958.484C2201.01 959.005 2200.95 959.566 2201.02 960.117 2201.09 960.669 2201.29 961.196 2201.61 961.652 2201.92 962.108 2202.35 962.481 2202.84 962.737 2203.33 962.994 2203.88 963.127 2204.44 963.125L2228.5 963.125C2229.15 963.123 2229.79 963.305 2230.34 963.651 2230.89 963.997 2231.33 964.492 2231.61 965.079 2231.89 965.665 2232 966.32 2231.93 966.966 2231.85 967.612 2231.59 968.223 2231.18 968.728L2197.15 1003.79C2196.89 1004.09 2196.55 1004.28 2196.16 1004.36 2195.78 1004.43 2195.38 1004.36 2195.04 1004.18 2194.7 1004 2194.43 1003.7 2194.27 1003.34 2194.12 1002.99 2194.09 1002.59 2194.19 1002.21L2200.79 981.516C2200.99 980.995 2201.05 980.435 2200.98 979.883 2200.91 979.331 2200.71 978.805 2200.39 978.348 2200.08 977.892 2199.65 977.52 2199.16 977.263 2198.67 977.006 2198.12 976.873 2197.56 976.875L2173.5 976.875Z" stroke="#B39348" stroke-width="6.875" stroke-linecap="round" stroke-linejoin="round" fill="none"/></g></g></g></g></svg>