<svg width="221" height="223" xmlns="http://www.w3.org/2000/svg" xmlns:xlink="http://www.w3.org/1999/xlink" xml:space="preserve" overflow="hidden"><defs><filter id="fx0" x="-10%" y="-10%" width="120%" height="120%" filterUnits="userSpaceOnUse" primitiveUnits="userSpaceOnUse"><feComponentTransfer color-interpolation-filters="sRGB"><feFuncR type="discrete" tableValues="0 0"/><feFuncG type="discrete" tableValues="0 0"/><feFuncB type="discrete" tableValues="0 0"/><feFuncA type="linear" slope="0.4" intercept="0"/></feComponentTransfer><feGaussianBlur stdDeviation="6.11111 6.11111"/></filter><clipPath id="clip1"><rect x="3133" y="872" width="221" height="223"/></clipPath></defs><g clip-path="url(#clip1)" transform="translate(-3133 -872)"><g filter="url(#fx0)" transform="translate(3132 871)"><g><path d="M19.9998 112.25C19.9998 61.1635 60.9658 19.7499 111.5 19.7499 162.034 19.7499 203 61.1635 203 112.25 203 163.336 162.034 204.75 111.5 204.75 60.9658 204.75 19.9998 163.336 19.9998 112.25Z" fill="#FFFFFF" fill-rule="evenodd"/></g></g><path d="M3152 969.5C3152 918.414 3192.97 877 3243.5 877 3294.03 877 3335 918.414 3335 969.5 3335 1020.59 3294.03 1062 3243.5 1062 3192.97 1062 3152 1020.59 3152 969.5Z" fill="#FFFFFF" fill-rule="evenodd"/><g><g><g><path d="M3243 983.75C3250.59 983.75 3256.75 977.594 3256.75 970 3256.75 962.406 3250.59 956.25 3243 956.25 3235.41 956.25 3229.25 962.406 3229.25 970 3229.25 977.594 3235.41 983.75 3243 983.75Z" stroke="#B39348" stroke-width="6.875" stroke-linecap="round" stroke-linejoin="round" fill="none"/><path d="M3243 935.625 3243 942.5M3243 997.5 3243 1004.38M3218.7 945.697 3223.54 950.544M3262.46 989.456 3267.3 994.303M3208.62 970 3215.5 970M3270.5 970 3277.38 970M3223.54 989.456 3218.7 994.303M3267.3 945.697 3262.46 950.544" stroke="#B39348" stroke-width="6.875" stroke-linecap="round" stroke-linejoin="round" fill="none"/></g></g></g></g></svg>