<svg width="221" height="223" xmlns="http://www.w3.org/2000/svg" xmlns:xlink="http://www.w3.org/1999/xlink" xml:space="preserve" overflow="hidden"><defs><filter id="fx0" x="-10%" y="-10%" width="120%" height="120%" filterUnits="userSpaceOnUse" primitiveUnits="userSpaceOnUse"><feComponentTransfer color-interpolation-filters="sRGB"><feFuncR type="discrete" tableValues="0 0"/><feFuncG type="discrete" tableValues="0 0"/><feFuncB type="discrete" tableValues="0 0"/><feFuncA type="linear" slope="0.4" intercept="0"/></feComponentTransfer><feGaussianBlur stdDeviation="6.11111 6.11111"/></filter><clipPath id="clip1"><rect x="1049" y="872" width="221" height="223"/></clipPath></defs><g clip-path="url(#clip1)" transform="translate(-1049 -872)"><g filter="url(#fx0)" transform="translate(1048 871)"><g><path d="M20 112.25C20 61.1635 60.9659 19.7499 111.5 19.7499 162.034 19.7499 203 61.1635 203 112.25 203 163.336 162.034 204.75 111.5 204.75 60.9659 204.75 20 163.336 20 112.25Z" fill="#FFFFFF" fill-rule="evenodd"/></g></g><path d="M1068 969.5C1068 918.414 1108.97 877 1159.5 877 1210.03 877 1251 918.414 1251 969.5 1251 1020.59 1210.03 1062 1159.5 1062 1108.97 1062 1068 1020.59 1068 969.5Z" fill="#FFFFFF" fill-rule="evenodd"/><g><g><g><path d="M1189.94 1000.94 1175.02 986.019" stroke="#B39348" stroke-width="6.875" stroke-linecap="round" stroke-linejoin="round" fill="none"/><path d="M1155.56 994.063C1170.75 994.063 1183.06 981.75 1183.06 966.563 1183.06 951.375 1170.75 939.063 1155.56 939.063 1140.37 939.063 1128.06 951.375 1128.06 966.563 1128.06 981.75 1140.37 994.063 1155.56 994.063Z" stroke="#B39348" stroke-width="6.875" stroke-linecap="round" stroke-linejoin="round" fill="none"/></g></g></g></g></svg>