<svg width="32" height="32" xmlns="http://www.w3.org/2000/svg" xmlns:xlink="http://www.w3.org/1999/xlink" xml:space="preserve" overflow="hidden"><g transform="translate(61 -1076)"><path d="M-53 1094C-53.1892 1094-53.3748 1093.95-53.535 1093.85-53.6953 1093.75-53.8238 1093.6-53.9055 1093.43-53.9871 1093.26-54.0187 1093.07-53.9965 1092.88-53.9743 1092.69-53.8992 1092.52-53.78 1092.37L-43.88 1082.17C-43.8057 1082.08-43.7045 1082.03-43.593 1082.01-43.4815 1081.99-43.3663 1082-43.2663 1082.06-43.1663 1082.11-43.0874 1082.2-43.0427 1082.3-42.9979 1082.4-42.9899 1082.52-43.02 1082.63L-44.94 1088.65C-44.9966 1088.8-45.0156 1088.96-44.9954 1089.12-44.9752 1089.29-44.9163 1089.44-44.8239 1089.57-44.7315 1089.7-44.6082 1089.81-44.4647 1089.89-44.3212 1089.96-44.1618 1090-44 1090L-37 1090C-36.8108 1090-36.6252 1090.05-36.465 1090.15-36.3047 1090.25-36.1762 1090.4-36.0946 1090.57-36.0129 1090.74-35.9813 1090.93-36.0035 1091.12-36.0257 1091.31-36.1008 1091.48-36.22 1091.63L-46.12 1101.83C-46.1943 1101.92-46.2955 1101.97-46.407 1101.99-46.5185 1102.01-46.6337 1102-46.7337 1101.94-46.8337 1101.89-46.9126 1101.8-46.9573 1101.7-47.0021 1101.6-47.0101 1101.48-46.98 1101.37L-45.06 1095.35C-45.0034 1095.2-44.9844 1095.04-45.0046 1094.88-45.0248 1094.71-45.0837 1094.56-45.1761 1094.43-45.2685 1094.3-45.3918 1094.19-45.5353 1094.11-45.6788 1094.04-45.8383 1094-46 1094L-53 1094Z" stroke="#B39348" stroke-width="2" stroke-linecap="round" stroke-linejoin="round" fill="none"/></g></svg>