<svg width="32" height="32" xmlns="http://www.w3.org/2000/svg" xmlns:xlink="http://www.w3.org/1999/xlink" xml:space="preserve" overflow="hidden"><g transform="translate(61 -543)"><path d="M-36.9703 553.764-42.0141 548.72C-42.1547 548.58-42.3445 548.5-42.5438 548.5L-52.5 548.5C-52.9148 548.5-53.25 548.835-53.25 549.25L-53.25 568.75C-53.25 569.165-52.9148 569.5-52.5 569.5L-37.5 569.5C-37.0852 569.5-36.75 569.165-36.75 568.75L-36.75 554.296C-36.75 554.097-36.8297 553.905-36.9703 553.764ZM-38.4797 554.641-42.8906 554.641-42.8906 550.23-38.4797 554.641ZM-38.4375 567.812-51.5625 567.812-51.5625 550.188-44.4844 550.188-44.4844 555.25C-44.4844 555.511-44.3807 555.761-44.1961 555.946-44.0115 556.131-43.7611 556.234-43.5 556.234L-38.4375 556.234-38.4375 567.812ZM-45.1875 561.484-49.5 561.484C-49.6031 561.484-49.6875 561.569-49.6875 561.672L-49.6875 562.797C-49.6875 562.9-49.6031 562.984-49.5 562.984L-45.1875 562.984C-45.0844 562.984-45 562.9-45 562.797L-45 561.672C-45 561.569-45.0844 561.484-45.1875 561.484ZM-49.6875 558.484-49.6875 559.609C-49.6875 559.713-49.6031 559.797-49.5 559.797L-40.5 559.797C-40.3969 559.797-40.3125 559.713-40.3125 559.609L-40.3125 558.484C-40.3125 558.381-40.3969 558.297-40.5 558.297L-49.5 558.297C-49.6031 558.297-49.6875 558.381-49.6875 558.484Z" fill="#B39348"/></g></svg>