<svg width="32" height="32" xmlns="http://www.w3.org/2000/svg" xmlns:xlink="http://www.w3.org/1999/xlink" xml:space="preserve" overflow="hidden"><g transform="translate(62 -466)"><path d="M-52 484-50.5 481.1C-50.3369 480.776-50.0889 480.503-49.7824 480.309-49.4759 480.115-49.1225 480.008-48.76 480L-38 480M-38 480C-37.6945 480-37.3929 480.069-37.1184 480.203-36.8439 480.337-36.6037 480.533-36.4164 480.774-36.2291 481.015-36.0996 481.296-36.0378 481.596-35.976 481.895-35.9836 482.204-36.06 482.5L-37.6 488.5C-37.7114 488.932-37.9638 489.314-38.3171 489.585-38.6704 489.857-39.1043 490.003-39.55 490L-54 490C-54.5304 490-55.0391 489.789-55.4142 489.414-55.7893 489.039-56 488.53-56 488L-56 475C-56 474.47-55.7893 473.961-55.4142 473.586-55.0391 473.211-54.5304 473-54 473L-50.1 473C-49.7655 472.997-49.4355 473.077-49.1403 473.235-48.8451 473.392-48.594 473.621-48.41 473.9L-47.6 475.1C-47.4179 475.377-47.17 475.604-46.8785 475.761-46.587 475.918-46.2611 476-45.93 476L-40 476C-39.4696 476-38.9609 476.211-38.5858 476.586-38.2107 476.961-38 477.47-38 478L-38 480Z" stroke="#B39348" stroke-width="2" stroke-linecap="round" stroke-linejoin="round" fill="none"/></g></svg>