<svg width="32" height="32" xmlns="http://www.w3.org/2000/svg" xmlns:xlink="http://www.w3.org/1999/xlink" xml:space="preserve" overflow="hidden"><g transform="translate(60 -1390)"><path d="M-41 1416-41 1412C-40.8609 1410.75-41.2201 1409.49-42 1408.5-39 1408.5-36 1406.5-36 1403-35.92 1401.75-36.27 1400.52-37 1399.5-36.72 1398.35-36.72 1397.15-37 1396-37 1396-38 1396-40 1397.5-42.64 1397-45.36 1397-48 1397.5-50 1396-51 1396-51 1396-51.3 1397.15-51.3 1398.35-51 1399.5-51.7284 1400.52-52.0818 1401.75-52 1403-52 1406.5-49 1408.5-46 1408.5-46.39 1408.99-46.68 1409.55-46.85 1410.15-47.02 1410.75-47.07 1411.38-47 1412L-47 1416" stroke="#1A2E4F" stroke-width="2" stroke-linecap="round" stroke-linejoin="round" fill="none"/><path d="M-47 1412C-51.51 1414-52 1410-54 1410" stroke="#1A2E4F" stroke-width="2" stroke-linecap="round" stroke-linejoin="round" fill="none"/></g></svg>