<svg width="32" height="32" xmlns="http://www.w3.org/2000/svg" xmlns:xlink="http://www.w3.org/1999/xlink" xml:space="preserve" overflow="hidden"><g transform="translate(65 -843)"><path d="M-49 860-49 849-41 853-49 857" stroke="#B39348" stroke-width="2" stroke-linecap="round" stroke-linejoin="round" fill="none"/><path d="M-40.439 857.222C-39.9068 858.862-39.857 860.621-40.2955 862.288-40.734 863.956-41.6423 865.462-42.9124 866.629-44.1825 867.795-45.7608 868.572-47.4597 868.867-49.1586 869.162-50.9065 868.963-52.4954 868.293-54.0843 867.623-55.4474 866.511-56.4225 865.089-57.3975 863.667-57.9436 861.995-57.9955 860.271-58.0475 858.547-57.6033 856.845-56.7158 855.367-55.8282 853.889-54.5346 852.696-52.989 851.932" stroke="#B39348" stroke-width="2" stroke-linecap="round" stroke-linejoin="round" fill="none"/><path d="M-52.998 856.997C-53.4991 857.664-53.8253 858.446-53.9469 859.271-54.0686 860.097-53.9818 860.939-53.6944 861.722-53.407 862.506-52.9282 863.205-52.3017 863.755-51.6751 864.306-50.9206 864.692-50.107 864.876-49.2935 865.061-48.4466 865.039-47.6436 864.813-46.8407 864.586-46.1071 864.162-45.5098 863.58-44.9124 862.998-44.4703 862.275-44.2238 861.478-43.9772 860.681-43.9339 859.835-44.098 859.017" stroke="#B39348" stroke-width="2" stroke-linecap="round" stroke-linejoin="round" fill="none"/></g></svg>