<svg width="32" height="32" xmlns="http://www.w3.org/2000/svg" xmlns:xlink="http://www.w3.org/1999/xlink" xml:space="preserve" overflow="hidden"><g transform="translate(-689 -322)"><path d="M709 334C710.591 334 712.117 334.632 713.243 335.757 714.368 336.883 715 338.409 715 340L715 347 711 347 711 340C711 339.47 710.789 338.961 710.414 338.586 710.039 338.211 709.53 338 709 338 708.47 338 707.961 338.211 707.586 338.586 707.211 338.961 707 339.47 707 340L707 347 703 347 703 340C703 338.409 703.632 336.883 704.757 335.757 705.883 334.632 707.409 334 709 334ZM695 335 699 335 699 347 695 347 695 335Z" stroke="#C3AB91" stroke-width="2" stroke-linecap="round" stroke-linejoin="round" fill="none"/><path d="M697 332C698.105 332 699 331.105 699 330 699 328.895 698.105 328 697 328 695.895 328 695 328.895 695 330 695 331.105 695.895 332 697 332Z" stroke="#C3AB91" stroke-width="2" stroke-linecap="round" stroke-linejoin="round" fill="none"/></g></svg>