<svg width="144" height="32" viewBox="0 0 144 32" fill="none" xmlns="http://www.w3.org/2000/svg">
<path d="M71.75 25.973C72.0014 25.3196 72.1276 24.2518 72.1276 22.7698V16.5254C72.1276 15.0871 72.0014 14.0358 71.75 13.3708C71.4982 12.7063 71.0548 12.3737 70.4201 12.3737C69.8069 12.3737 69.3741 12.7063 69.1227 13.3708C68.8709 14.0358 68.745 15.0871 68.745 16.5254V22.7698C68.745 24.2518 68.8652 25.3196 69.1064 25.973C69.3468 26.6271 69.7846 26.9537 70.4201 26.9537C71.0548 26.9537 71.4982 26.6271 71.75 25.973ZM66.6598 29.1115C65.7507 28.502 65.1046 27.5534 64.7221 26.2673C64.3387 24.9818 64.1475 23.2709 64.1475 21.135V18.2254C64.1475 16.0679 64.366 14.3351 64.8041 13.0276C65.2418 11.72 65.9257 10.7667 66.8568 10.1672C67.7871 9.56805 69.0078 9.26818 70.5187 9.26818C72.0074 9.26818 73.2005 9.57351 74.0983 10.1835C74.9957 10.7936 75.6527 11.7475 76.0689 13.0439C76.4844 14.3408 76.6927 16.0679 76.6927 18.2254V21.135C76.6927 23.2709 76.49 24.9874 76.0852 26.2839C75.6799 27.5806 75.0229 28.5287 74.1145 29.1277C73.2057 29.7271 71.9745 30.027 70.4201 30.027C68.8214 30.027 67.5678 29.7215 66.6598 29.1115Z" fill="#252323"/>
<path d="M136.988 12.7483C136.759 13.0316 136.605 13.4949 136.528 14.1375C136.451 14.7806 136.414 15.7557 136.414 17.0633V18.5018H139.73V17.0633C139.73 15.7778 139.686 14.8025 139.599 14.1375C139.511 13.473 139.353 13.0047 139.123 12.732C138.893 12.4595 138.537 12.3231 138.056 12.3231C137.574 12.3231 137.218 12.4652 136.988 12.7483ZM136.414 21.1826V22.1961C136.414 23.4823 136.451 24.4465 136.528 25.0892C136.605 25.7322 136.763 26.2008 137.005 26.4951C137.245 26.7891 137.617 26.9365 138.121 26.9365C138.799 26.9365 139.265 26.6749 139.517 26.1516C139.768 25.6286 139.905 24.757 139.927 23.5362L143.836 23.7652C143.857 23.9401 143.868 24.1797 143.868 24.4843C143.868 26.3371 143.36 27.7211 142.341 28.6365C141.324 29.5515 139.883 30.0093 138.023 30.0093C135.79 30.0093 134.224 29.3122 133.326 27.9169C132.428 26.5227 131.979 24.3649 131.979 21.4442V17.946C131.979 14.9385 132.445 12.7432 133.376 11.3587C134.306 9.9749 135.899 9.28289 138.154 9.28289C139.708 9.28289 140.902 9.56628 141.734 10.1328C142.565 10.6999 143.151 11.5825 143.491 12.7808C143.83 13.9796 144 15.6362 144 17.75V21.1826H136.414Z" fill="#252323"/>
<path d="M55.6237 20.8074L50.4674 2.27121H54.9667L56.7729 10.673C57.233 12.7439 57.572 14.5092 57.7909 15.9689H57.9225C58.0756 14.9229 58.4151 13.1687 58.9405 10.7058L60.8125 2.27121H65.3118L60.0901 20.8074V29.7H55.6237V20.8074Z" fill="#252323"/>
<path d="M91.3261 9.66022V29.6999H87.779L87.3848 27.2482H87.2865C86.3229 29.1005 84.8777 30.0266 82.9513 30.0266C81.6157 30.0266 80.6305 29.5912 79.9955 28.7191C79.3604 27.8479 79.0432 26.4853 79.0432 24.6328V9.66022H83.5754V24.3711C83.5754 25.2652 83.674 25.9025 83.871 26.2835C84.0679 26.6653 84.3965 26.8557 84.8561 26.8557C85.2504 26.8557 85.6281 26.7362 85.9891 26.4958C86.3505 26.2562 86.6185 25.9517 86.7939 25.581V9.66022H91.3261Z" fill="#252323"/>
<path d="M114.573 9.66022V29.6999H111.026L110.632 27.2482H110.534C109.57 29.1005 108.125 30.0266 106.198 30.0266C104.863 30.0266 103.878 29.5912 103.243 28.7191C102.608 27.8479 102.29 26.4853 102.29 24.6328V9.66022H106.823V24.3711C106.823 25.2652 106.921 25.9025 107.118 26.2835C107.315 26.6653 107.644 26.8557 108.103 26.8557C108.498 26.8557 108.875 26.7362 109.236 26.4958C109.598 26.2562 109.866 25.9517 110.041 25.581V9.66022H114.573Z" fill="#252323"/>
<path d="M103.641 5.90068H99.1421V29.7H94.7086V5.90068H90.2094V2.27181H103.641V5.90068Z" fill="#252323"/>
<path d="M125.419 21.0378C125.419 22.4981 125.358 23.6425 125.238 24.4703C125.118 25.299 124.915 25.8873 124.63 26.2356C124.346 26.5845 123.962 26.7587 123.481 26.7587C123.108 26.7587 122.764 26.6719 122.446 26.497C122.129 26.3228 121.872 26.0615 121.674 25.7124V14.3359C121.828 13.7915 122.09 13.3445 122.463 12.9956C122.835 12.6475 123.24 12.4727 123.678 12.4727C124.138 12.4727 124.493 12.6526 124.745 13.012C124.997 13.3715 125.172 13.9764 125.271 14.8266C125.369 15.6763 125.419 16.8859 125.419 18.4551V21.0378ZM129.573 12.8635C129.299 11.5999 128.855 10.6846 128.243 10.1175C127.63 9.5513 126.787 9.26776 125.714 9.26776C124.882 9.26776 124.105 9.50219 123.382 9.97049C122.66 10.4392 122.101 11.055 121.707 11.8177H121.674L121.674 1.25827H117.307V29.6995H121.05L121.51 27.8037H121.609C121.959 28.4792 122.484 29.0132 123.185 29.4055C123.886 29.7977 124.663 29.9939 125.517 29.9939C127.049 29.9939 128.177 29.2908 128.9 27.8853C129.622 26.4794 129.984 24.2841 129.984 21.298V18.127C129.984 15.8824 129.846 14.128 129.573 12.8635Z" fill="#252323"/>
<path d="M44.9648 4.99681C44.4367 3.03007 42.8808 1.48094 40.9048 0.955298C37.3232 6.41298e-08 22.9622 -8.68911e-07 22.9622 -8.68911e-07C22.9622 -8.68911e-07 8.60129 6.41298e-08 5.01978 0.955298C3.044 1.48094 1.48774 3.03007 0.959686 4.99681C0 8.56189 0 15.9999 0 15.9999C0 15.9999 0 23.4381 0.959686 27.0031C1.48774 28.9697 3.044 30.5189 5.01978 31.0444C8.60129 32 22.9622 32 22.9622 32C22.9622 32 37.3232 32 40.9048 31.0444C42.8808 30.5189 44.4367 28.9697 44.9648 27.0031C45.9242 23.4381 45.9242 15.9999 45.9242 15.9999C45.9242 15.9999 45.9242 8.56189 44.9648 4.99681Z" fill="#252323"/>
<path d="M18.3698 22.8571V9.14282L30.3009 16.0001L18.3698 22.8571Z" fill="white"/>
</svg>
