<svg width="32" height="32" viewBox="0 0 32 32" fill="none" xmlns="http://www.w3.org/2000/svg">
<path d="M23 7H9C7.89543 7 7 7.89543 7 9V23C7 24.1046 7.89543 25 9 25H23C24.1046 25 25 24.1046 25 23V9C25 7.89543 24.1046 7 23 7Z" stroke="black" stroke-width="2" stroke-linecap="round" stroke-linejoin="round"/>
<path d="M13 15C14.1046 15 15 14.1046 15 13C15 11.8954 14.1046 11 13 11C11.8954 11 11 11.8954 11 13C11 14.1046 11.8954 15 13 15Z" stroke="black" stroke-width="2" stroke-linecap="round" stroke-linejoin="round"/>
<path d="M25 19L21.914 15.914C21.5389 15.5391 21.0303 15.3284 20.5 15.3284C19.9697 15.3284 19.4611 15.5391 19.086 15.914L10 25" stroke="black" stroke-width="2" stroke-linecap="round" stroke-linejoin="round"/>
</svg>
