<svg width="32" height="32" viewBox="0 0 32 32" fill="none" xmlns="http://www.w3.org/2000/svg">
<path d="M7.99999 18C7.81076 18.0006 7.62522 17.9476 7.46495 17.847C7.30467 17.7464 7.17623 17.6023 7.09454 17.4316C7.01286 17.2609 6.98129 17.0706 7.00349 16.8826C7.0257 16.6947 7.10077 16.5169 7.21999 16.37L17.12 6.16998C17.1943 6.08426 17.2955 6.02634 17.407 6.00571C17.5185 5.98509 17.6337 6.00299 17.7337 6.05648C17.8337 6.10998 17.9126 6.19588 17.9573 6.30009C18.0021 6.4043 18.0101 6.52063 17.98 6.62998L16.06 12.65C16.0034 12.8015 15.9844 12.9645 16.0046 13.125C16.0248 13.2855 16.0837 13.4387 16.1761 13.5714C16.2685 13.7042 16.3918 13.8125 16.5353 13.8871C16.6788 13.9618 16.8382 14.0005 17 14H24C24.1892 13.9993 24.3748 14.0524 24.535 14.153C24.6953 14.2536 24.8238 14.3976 24.9054 14.5683C24.9871 14.739 25.0187 14.9294 24.9965 15.1173C24.9743 15.3053 24.8992 15.483 24.78 15.63L14.88 25.83C14.8057 25.9157 14.7045 25.9736 14.593 25.9942C14.4815 26.0149 14.3663 25.997 14.2663 25.9435C14.1663 25.89 14.0874 25.8041 14.0427 25.6999C13.9979 25.5957 13.9899 25.4793 14.02 25.37L15.94 19.35C15.9966 19.1985 16.0156 19.0355 15.9954 18.875C15.9752 18.7145 15.9163 18.5613 15.8239 18.4286C15.7315 18.2958 15.6082 18.1875 15.4647 18.1128C15.3212 18.0382 15.1617 17.9995 15 18H7.99999Z" stroke="black" stroke-width="2" stroke-linecap="round" stroke-linejoin="round"/>
</svg>
