<svg width="32" height="32" viewBox="0 0 32 32" fill="none" xmlns="http://www.w3.org/2000/svg">
<path d="M16 16H16.01M20 10V8C20 7.46957 19.7893 6.96086 19.4142 6.58579C19.0391 6.21071 18.5304 6 18 6H14C13.4696 6 12.9609 6.21071 12.5858 6.58579C12.2107 6.96086 12 7.46957 12 8V10M26 17C23.0328 18.959 19.5555 20.0033 16 20.0033C12.4445 20.0033 8.96721 18.959 6 17" stroke="black" stroke-width="2" stroke-linecap="round" stroke-linejoin="round"/>
<path d="M24 10H8C6.89543 10 6 10.8954 6 12V22C6 23.1046 6.89543 24 8 24H24C25.1046 24 26 23.1046 26 22V12C26 10.8954 25.1046 10 24 10Z" stroke="black" stroke-width="2" stroke-linecap="round" stroke-linejoin="round"/>
</svg>
