<svg width="32" height="32" viewBox="0 0 32 32" fill="none" xmlns="http://www.w3.org/2000/svg">
<path d="M16 13V17M16 21H16.01M25.73 22L17.73 7.99998C17.5556 7.69218 17.3026 7.43617 16.9969 7.25805C16.6912 7.07993 16.3438 6.98608 15.99 6.98608C15.6362 6.98608 15.2887 7.07993 14.9831 7.25805C14.6774 7.43617 14.4244 7.69218 14.25 7.99998L6.24999 22C6.07367 22.3053 5.98122 22.6519 5.982 23.0045C5.98278 23.3571 6.07677 23.7032 6.25444 24.0078C6.43211 24.3124 6.68714 24.5646 6.99369 24.7388C7.30023 24.9131 7.6474 25.0032 7.99999 25H24C24.3509 24.9996 24.6955 24.9069 24.9993 24.7313C25.303 24.5556 25.5552 24.3031 25.7305 23.9991C25.9058 23.6951 25.998 23.3504 25.9979 22.9995C25.9978 22.6486 25.9054 22.3039 25.73 22Z" stroke="black" stroke-width="2" stroke-linecap="round" stroke-linejoin="round"/>
</svg>
