<svg width="32" height="32" viewBox="0 0 32 32" fill="none" xmlns="http://www.w3.org/2000/svg">
<path d="M9 9.00001C8.9999 8.64811 9.09265 8.3024 9.26888 7.9978C9.44512 7.69321 9.69861 7.4405 10.0038 7.26521C10.3089 7.08992 10.6549 6.99824 11.0068 6.99943C11.3587 7.00063 11.7041 7.09465 12.008 7.27201L24.005 14.27C24.3078 14.4457 24.5591 14.6978 24.7339 15.001C24.9088 15.3043 25.0009 15.6481 25.0012 15.9982C25.0015 16.3482 24.91 16.6922 24.7357 16.9957C24.5614 17.2993 24.3105 17.5518 24.008 17.728L12.008 24.728C11.7041 24.9054 11.3587 24.9994 11.0068 25.0006C10.6549 25.0018 10.3089 24.9101 10.0038 24.7348C9.69861 24.5595 9.44512 24.3068 9.26888 24.0022C9.09265 23.6976 8.9999 23.3519 9 23V9.00001Z" stroke="black" stroke-width="2" stroke-linecap="round" stroke-linejoin="round"/>
</svg>
