<svg width="32" height="32" viewBox="0 0 32 32" fill="none" xmlns="http://www.w3.org/2000/svg">
<path d="M16 23L12.03 25.38C11.7189 25.5669 11.3629 25.6656 11 25.6656C10.6371 25.6656 10.2811 25.5669 9.97 25.38L6.97 23.58C6.67476 23.4026 6.43033 23.152 6.26039 22.8524C6.09045 22.5528 6.00075 22.2144 6 21.87V18.63C6.00075 18.2856 6.09045 17.9472 6.26039 17.6476C6.43033 17.348 6.67476 17.0974 6.97 16.92L11 14.5L16 17.5M16 23V17.5M16 23L19.97 25.38C20.2811 25.5669 20.6371 25.6656 21 25.6656C21.3629 25.6656 21.7189 25.5669 22.03 25.38L25.03 23.58C25.3252 23.4026 25.5697 23.152 25.7396 22.8524C25.9096 22.5528 25.9992 22.2144 26 21.87V18.63C25.9992 18.2856 25.9096 17.9472 25.7396 17.6476C25.5697 17.348 25.3252 17.0974 25.03 16.92L21 14.5L16 17.5M16 17.5L11 20.5M16 17.5L21 20.5M11 20.5L6.26 17.65M11 20.5V25.67M21 20.5L25.74 17.65M21 20.5V25.67" stroke="black" stroke-width="2" stroke-linecap="round" stroke-linejoin="round"/>
<path d="M16 17.5L11 14.5V10.13C11.0008 9.78557 11.0904 9.44718 11.2604 9.14759C11.4303 8.848 11.6748 8.59738 11.97 8.42L14.97 6.62C15.2811 6.43311 15.6371 6.33438 16 6.33438C16.3629 6.33438 16.7189 6.43311 17.03 6.62L20.03 8.42C20.3252 8.59738 20.5697 8.848 20.7396 9.14759C20.9096 9.44718 20.9992 9.78557 21 10.13V14.5L16 17.5ZM16 17.5V12M16 12L11.26 9.15M16 12L20.74 9.15" stroke="black" stroke-width="2" stroke-linecap="round" stroke-linejoin="round"/>
</svg>
