<svg width="32" height="32" viewBox="0 0 32 32" fill="none" xmlns="http://www.w3.org/2000/svg">
<path d="M24.0297 10.7641L18.9859 5.72031C18.8453 5.57969 18.6555 5.5 18.4562 5.5H8.5C8.08516 5.5 7.75 5.83516 7.75 6.25V25.75C7.75 26.1648 8.08516 26.5 8.5 26.5H23.5C23.9148 26.5 24.25 26.1648 24.25 25.75V11.2961C24.25 11.0969 24.1703 10.9047 24.0297 10.7641ZM22.5203 11.6406H18.1094V7.22969L22.5203 11.6406ZM22.5625 24.8125H9.4375V7.1875H16.5156V12.25C16.5156 12.5111 16.6193 12.7615 16.8039 12.9461C16.9885 13.1307 17.2389 13.2344 17.5 13.2344H22.5625V24.8125ZM15.8125 18.4844H11.5C11.3969 18.4844 11.3125 18.5688 11.3125 18.6719V19.7969C11.3125 19.9 11.3969 19.9844 11.5 19.9844H15.8125C15.9156 19.9844 16 19.9 16 19.7969V18.6719C16 18.5688 15.9156 18.4844 15.8125 18.4844ZM11.3125 15.4844V16.6094C11.3125 16.7125 11.3969 16.7969 11.5 16.7969H20.5C20.6031 16.7969 20.6875 16.7125 20.6875 16.6094V15.4844C20.6875 15.3813 20.6031 15.2969 20.5 15.2969H11.5C11.3969 15.2969 11.3125 15.3813 11.3125 15.4844Z" fill="black"/>
</svg>
