<svg width="32" height="32" viewBox="0 0 32 32" fill="none" xmlns="http://www.w3.org/2000/svg">
<path d="M19 26V22C19.1391 20.7473 18.7799 19.4901 18 18.5C21 18.5 24 16.5 24 13C24.08 11.75 23.73 10.52 23 9.5C23.28 8.35 23.28 7.15 23 6C23 6 22 6 20 7.5C17.36 7 14.64 7 12 7.5C9.99998 6 8.99998 6 8.99998 6C8.69998 7.15 8.69998 8.35 8.99998 9.5C8.27163 10.5158 7.9182 11.7528 7.99998 13C7.99998 16.5 11 18.5 14 18.5C13.61 18.99 13.32 19.55 13.15 20.15C12.98 20.75 12.93 21.38 13 22V26" stroke="black" stroke-width="2" stroke-linecap="round" stroke-linejoin="round"/>
<path d="M13 22C8.49 24 8 20 6 20" stroke="black" stroke-width="2" stroke-linecap="round" stroke-linejoin="round"/>
</svg>
