<svg width="32" height="32" viewBox="0 0 32 32" fill="none" xmlns="http://www.w3.org/2000/svg">
<path d="M10 18L11.5 15.1C11.6631 14.7761 11.9111 14.5027 12.2176 14.3089C12.5241 14.1152 12.8775 14.0084 13.24 14H24M24 14C24.3055 13.9995 24.6071 14.0689 24.8816 14.2031C25.1561 14.3372 25.3963 14.5325 25.5836 14.7739C25.7709 15.0152 25.9004 15.2963 25.9622 15.5956C26.024 15.8948 26.0164 16.2042 25.94 16.5L24.4 22.5C24.2886 22.9316 24.0362 23.3135 23.6829 23.5853C23.3296 23.857 22.8957 24.003 22.45 24H8C7.46957 24 6.96086 23.7893 6.58579 23.4142C6.21071 23.0391 6 22.5304 6 22V9C6 8.46957 6.21071 7.96086 6.58579 7.58579C6.96086 7.21071 7.46957 7 8 7H11.9C12.2345 6.99672 12.5645 7.07739 12.8597 7.23462C13.1549 7.39185 13.406 7.62063 13.59 7.9L14.4 9.1C14.5821 9.37653 14.83 9.60352 15.1215 9.7606C15.413 9.91769 15.7389 9.99995 16.07 10H22C22.5304 10 23.0391 10.2107 23.4142 10.5858C23.7893 10.9609 24 11.4696 24 12V14Z" stroke="black" stroke-width="2" stroke-linecap="round" stroke-linejoin="round"/>
</svg>
