<svg width="32" height="32" viewBox="0 0 32 32" fill="none" xmlns="http://www.w3.org/2000/svg">
<path d="M16 17V6L24 10L16 14" stroke="black" stroke-width="2" stroke-linecap="round" stroke-linejoin="round"/>
<path d="M24.561 14.222C25.0932 15.8621 25.143 17.6206 24.7045 19.2883C24.266 20.9559 23.3577 22.4624 22.0876 23.6287C20.8175 24.7949 19.2392 25.5718 17.5403 25.8668C15.8414 26.1619 14.0935 25.9627 12.5046 25.2929C10.9157 24.6232 9.5526 23.5111 8.57753 22.0889C7.60246 20.6668 7.05645 18.9945 7.00446 17.2709C6.95247 15.5474 7.39668 13.8452 8.28425 12.3669C9.17182 10.8886 10.4654 9.69632 12.011 8.93201" stroke="black" stroke-width="2" stroke-linecap="round" stroke-linejoin="round"/>
<path d="M12.002 13.997C11.5009 14.664 11.1747 15.4458 11.0531 16.2712C10.9314 17.0966 11.0182 17.9392 11.3056 18.7225C11.593 19.5057 12.0718 20.2045 12.6983 20.7554C13.3249 21.3062 14.0794 21.6915 14.893 21.8762C15.7065 22.0608 16.5534 22.039 17.3564 21.8126C18.1593 21.5862 18.8929 21.1625 19.4902 20.5801C20.0876 19.9977 20.5297 19.275 20.7762 18.478C21.0228 17.681 21.0661 16.835 20.902 16.017" stroke="black" stroke-width="2" stroke-linecap="round" stroke-linejoin="round"/>
</svg>
