<svg width="32" height="32" viewBox="0 0 32 32" fill="none" xmlns="http://www.w3.org/2000/svg">
<path d="M6.49996 20.9999C5.80079 17.7033 5.80079 14.2966 6.49996 10.9999C6.59175 10.6652 6.7691 10.36 7.01457 10.1145C7.26004 9.86908 7.56517 9.69173 7.89996 9.59994C13.2635 8.71213 18.7365 8.71213 24.1 9.59994C24.4348 9.69173 24.7399 9.86908 24.9854 10.1145C25.2308 10.36 25.4082 10.6652 25.5 10.9999C26.1991 14.2966 26.1991 17.7033 25.5 20.9999C25.4082 21.3347 25.2308 21.6399 24.9854 21.8853C24.7399 22.1308 24.4348 22.3082 24.1 22.3999C18.7365 23.2878 13.2635 23.2878 7.89996 22.3999C7.56517 22.3082 7.26004 22.1308 7.01457 21.8853C6.7691 21.6399 6.59175 21.3347 6.49996 20.9999Z" stroke="black" stroke-width="2" stroke-linecap="round" stroke-linejoin="round"/>
<path d="M14 19L19 16L14 13V19Z" stroke="black" stroke-width="2" stroke-linecap="round" stroke-linejoin="round"/>
</svg>
