<svg width="32" height="32" viewBox="0 0 32 32" fill="none" xmlns="http://www.w3.org/2000/svg">
<path d="M19.39 8.39003C19.5157 8.51586 19.6727 8.60588 19.8448 8.65083C20.0169 8.69577 20.1978 8.694 20.369 8.6457C20.5402 8.59741 20.6954 8.50433 20.8186 8.37607C20.9418 8.24781 21.0286 8.089 21.07 7.91603C21.1738 7.48393 21.3909 7.0873 21.699 6.767C22.007 6.44671 22.3949 6.21431 22.8226 6.09375C23.2503 5.97319 23.7025 5.96882 24.1324 6.0811C24.5624 6.19337 24.9547 6.41823 25.2689 6.73252C25.5831 7.04681 25.8078 7.43916 25.9199 7.86918C26.0321 8.29919 26.0275 8.75133 25.9068 9.17902C25.7861 9.60671 25.5536 9.99449 25.2332 10.3024C24.9128 10.6104 24.5161 10.8274 24.084 10.931C23.911 10.9724 23.7522 11.0592 23.6239 11.1824C23.4957 11.3056 23.4026 11.4608 23.3543 11.632C23.306 11.8032 23.3042 11.9842 23.3492 12.1562C23.3941 12.3283 23.4842 12.4853 23.61 12.611L25.293 14.293C25.5172 14.5172 25.695 14.7833 25.8163 15.0762C25.9376 15.3691 26.0001 15.683 26.0001 16C26.0001 16.317 25.9376 16.631 25.8163 16.9239C25.695 17.2167 25.5172 17.4829 25.293 17.707L23.61 19.39C23.4843 19.5159 23.3273 19.6059 23.1552 19.6508C22.9831 19.6958 22.8022 19.694 22.631 19.6457C22.4598 19.5974 22.3046 19.5043 22.1814 19.3761C22.0582 19.2478 21.9714 19.089 21.93 18.916C21.8262 18.4839 21.6091 18.0873 21.301 17.767C20.993 17.4467 20.6051 17.2143 20.1774 17.0938C19.7496 16.9732 19.2975 16.9688 18.8675 17.0811C18.4375 17.1934 18.0453 17.4182 17.7311 17.7325C17.4169 18.0468 17.1922 18.4392 17.08 18.8692C16.9679 19.2992 16.9724 19.7513 17.0931 20.179C17.2138 20.6067 17.4464 20.9945 17.7668 21.3024C18.0872 21.6104 18.4838 21.8274 18.916 21.931C19.089 21.9724 19.2478 22.0592 19.376 22.1824C19.5043 22.3056 19.5974 22.4608 19.6457 22.632C19.694 22.8032 19.6957 22.9842 19.6508 23.1562C19.6058 23.3283 19.5158 23.4853 19.39 23.611L17.707 25.293C17.4828 25.5172 17.2167 25.695 16.9238 25.8163C16.6309 25.9377 16.317 26.0001 16 26.0001C15.683 26.0001 15.369 25.9377 15.0762 25.8163C14.7833 25.695 14.5171 25.5172 14.293 25.293L12.61 23.61C12.4843 23.4842 12.3273 23.3942 12.1552 23.3492C11.9831 23.3043 11.8022 23.3061 11.631 23.3543C11.4598 23.4026 11.3046 23.4957 11.1814 23.624C11.0582 23.7522 10.9714 23.9111 10.93 24.084C10.8262 24.5161 10.6091 24.9128 10.301 25.233C9.99297 25.5533 9.6051 25.7857 9.17737 25.9063C8.74964 26.0269 8.29751 26.0312 7.86753 25.919C7.43755 25.8067 7.04527 25.5818 6.73109 25.2675C6.4169 24.9532 6.19217 24.5609 6.08004 24.1309C5.96791 23.7009 5.97242 23.2487 6.09313 22.821C6.21383 22.3933 6.44635 22.0056 6.76675 21.6976C7.08715 21.3897 7.48385 21.1727 7.91599 21.069C8.08896 21.0276 8.24777 20.9408 8.37603 20.8176C8.50429 20.6944 8.59737 20.5392 8.64566 20.368C8.69396 20.1969 8.69573 20.0159 8.65078 19.8438C8.60584 19.6717 8.51581 19.5147 8.38999 19.389L6.70699 17.707C6.48281 17.4829 6.30499 17.2167 6.18366 16.9239C6.06234 16.631 5.9999 16.317 5.9999 16C5.9999 15.683 6.06234 15.3691 6.18366 15.0762C6.30499 14.7833 6.48281 14.5172 6.70699 14.293L8.38999 12.61C8.51569 12.4842 8.67268 12.3942 8.84476 12.3492C9.01685 12.3043 9.19781 12.3061 9.36899 12.3544C9.54017 12.4026 9.69537 12.4957 9.81859 12.624C9.94181 12.7522 10.0286 12.9111 10.07 13.084C10.1738 13.5161 10.3909 13.9128 10.699 14.2331C11.007 14.5533 11.3949 14.7857 11.8226 14.9063C12.2503 15.0269 12.7025 15.0312 13.1324 14.919C13.5624 14.8067 13.9547 14.5818 14.2689 14.2675C14.5831 13.9532 14.8078 13.5609 14.9199 13.1309C15.0321 12.7009 15.0275 12.2487 14.9068 11.821C14.7861 11.3933 14.5536 11.0056 14.2332 10.6976C13.9128 10.3897 13.5161 10.1727 13.084 10.069C12.911 10.0276 12.7522 9.94085 12.6239 9.81763C12.4957 9.69441 12.4026 9.53921 12.3543 9.36803C12.306 9.19686 12.3042 9.01589 12.3492 8.84381C12.3941 8.67172 12.4842 8.51473 12.61 8.38903L14.293 6.70703C14.5171 6.48285 14.7833 6.30503 15.0762 6.18371C15.369 6.06238 15.683 5.99994 16 5.99994C16.317 5.99994 16.6309 6.06238 16.9238 6.18371C17.2167 6.30503 17.4828 6.48285 17.707 6.70703L19.39 8.39003Z" stroke="black" stroke-width="2" stroke-linecap="round" stroke-linejoin="round"/>
</svg>
