<svg width="32" height="32" viewBox="0 0 32 32" fill="none" xmlns="http://www.w3.org/2000/svg">
<path d="M19.0001 16L9.62706 25.373C9.43007 25.57 9.19621 25.7264 8.93881 25.833C8.68142 25.9397 8.40553 25.9946 8.12691 25.9947C7.56421 25.9948 7.02451 25.7713 6.62656 25.3735C6.2286 24.9757 6.00498 24.4361 6.00488 23.8734C6.00479 23.3107 6.22823 22.771 6.62606 22.373L16.0001 13M22.0001 19L26.0001 15" stroke="black" stroke-width="2" stroke-linecap="round" stroke-linejoin="round"/>
<path d="M25.5 15.5L23.586 13.586C23.2109 13.211 23.0001 12.7024 23 12.172V11.828C22.9999 11.2976 22.7891 10.789 22.414 10.414L20.757 8.757C19.6321 7.63232 18.1067 7.00034 16.516 7H13L14.243 8.243C15.3679 9.36812 15.9999 10.894 16 12.485V14L18 16H19.172C19.7024 16.0001 20.211 16.2109 20.586 16.586L22.5 18.5" stroke="black" stroke-width="2" stroke-linecap="round" stroke-linejoin="round"/>
</svg>
