<svg width="32" height="32" xmlns="http://www.w3.org/2000/svg" xmlns:xlink="http://www.w3.org/1999/xlink" xml:space="preserve" overflow="hidden"><g transform="translate(60 -232)"><path d="M-37 239-51 239C-52.1046 239-53 239.895-53 241L-53 255C-53 256.105-52.1046 257-51 257L-37 257C-35.8954 257-35 256.105-35 255L-35 241C-35 239.895-35.8954 239-37 239Z" stroke="#B39348" stroke-width="2" stroke-linecap="round" stroke-linejoin="round" fill="none"/><path d="M-47 247C-45.8954 247-45 246.105-45 245-45 243.895-45.8954 243-47 243-48.1046 243-49 243.895-49 245-49 246.105-48.1046 247-47 247Z" stroke="#B39348" stroke-width="2" stroke-linecap="round" stroke-linejoin="round" fill="none"/><path d="M-35 251-38.086 247.914C-38.4611 247.539-38.9697 247.328-39.5 247.328-40.0303 247.328-40.5389 247.539-40.914 247.914L-50 257" stroke="#B39348" stroke-width="2" stroke-linecap="round" stroke-linejoin="round" fill="none"/></g></svg>