<svg xmlns="http://www.w3.org/2000/svg" xmlns:xlink="http://www.w3.org/1999/xlink" width="140" zoomAndPan="magnify" viewBox="0 0 104.88 30.000001" height="40" preserveAspectRatio="xMidYMid meet" version="1.0"><defs><clipPath id="fc46adcf10"><path d="M 6.472656 6 L 17 6 L 17 23 L 6.472656 23 Z M 6.472656 6 " clip-rule="nonzero"/></clipPath><clipPath id="b1fb6ba43a"><path d="M 72 3.371094 L 95 3.371094 L 95 25.65625 L 72 25.65625 Z M 72 3.371094 " clip-rule="nonzero"/></clipPath><clipPath id="9bda53164c"><path d="M 95 22 L 98.398438 22 L 98.398438 25.65625 L 95 25.65625 Z M 95 22 " clip-rule="nonzero"/></clipPath></defs><path fill="#1a2e4f" d="M 97.105469 24.214844 C 97.160156 24.21875 97.21875 24.207031 97.269531 24.183594 C 97.320312 24.164062 97.367188 24.128906 97.40625 24.089844 C 97.445312 24.050781 97.476562 24 97.496094 23.949219 C 97.515625 23.894531 97.523438 23.839844 97.519531 23.785156 C 97.519531 23.476562 97.335938 23.332031 96.953125 23.332031 L 96.332031 23.332031 L 96.332031 24.9375 L 96.566406 24.9375 L 96.566406 24.238281 L 96.851562 24.238281 L 96.859375 24.246094 L 97.300781 24.9375 L 97.550781 24.9375 L 97.074219 24.222656 Z M 96.835938 24.054688 L 96.566406 24.054688 L 96.566406 23.511719 L 96.90625 23.511719 C 97.085938 23.511719 97.285156 23.539062 97.285156 23.769531 C 97.285156 24.035156 97.082031 24.054688 96.835938 24.054688 " fill-opacity="1" fill-rule="nonzero"/><g clip-path="url(#fc46adcf10)"><path fill="#1a2e4f" d="M 6.472656 6.640625 L 9.90625 6.640625 L 9.90625 19.058594 L 16.265625 19.058594 L 16.265625 22.203125 L 6.472656 22.203125 Z M 6.472656 6.640625 " fill-opacity="1" fill-rule="nonzero"/></g><path fill="#1a2e4f" d="M 17.78125 11.652344 L 21.082031 11.652344 L 21.082031 22.199219 L 17.78125 22.199219 Z M 19.433594 6.410156 C 19.808594 6.410156 20.179688 6.519531 20.496094 6.730469 C 20.808594 6.9375 21.054688 7.234375 21.199219 7.582031 C 21.34375 7.929688 21.382812 8.3125 21.308594 8.679688 C 21.234375 9.046875 21.050781 9.386719 20.785156 9.652344 C 20.515625 9.917969 20.175781 10.097656 19.804688 10.171875 C 19.433594 10.246094 19.050781 10.207031 18.699219 10.0625 C 18.351562 9.917969 18.050781 9.675781 17.839844 9.363281 C 17.628906 9.050781 17.519531 8.683594 17.519531 8.308594 C 17.519531 8.058594 17.566406 7.8125 17.664062 7.582031 C 17.761719 7.351562 17.902344 7.140625 18.078125 6.964844 C 18.257812 6.789062 18.46875 6.648438 18.699219 6.554688 C 18.933594 6.457031 19.179688 6.410156 19.433594 6.410156 Z M 19.433594 6.410156 " fill-opacity="1" fill-rule="nonzero"/><path fill="#1a2e4f" d="M 34.882812 6.640625 L 38.179688 6.640625 L 38.179688 15.941406 L 41.917969 11.648438 L 45.964844 11.648438 L 41.632812 16.53125 L 45.871094 22.203125 L 41.726562 22.203125 L 38.222656 16.988281 L 38.179688 16.988281 L 38.179688 22.203125 L 34.882812 22.203125 Z M 34.882812 6.640625 " fill-opacity="1" fill-rule="nonzero"/><path fill="#1a2e4f" d="M 22.910156 11.652344 L 26.078125 11.652344 L 26.078125 13.09375 L 26.125 13.09375 C 26.441406 12.554688 26.898438 12.113281 27.449219 11.8125 C 27.996094 11.511719 28.621094 11.367188 29.246094 11.390625 C 32.59375 11.390625 33.207031 13.574219 33.207031 16.414062 L 33.207031 22.199219 L 29.910156 22.199219 L 29.910156 17.070312 C 29.910156 15.847656 29.886719 14.273438 28.191406 14.273438 C 26.476562 14.273438 26.210938 15.605469 26.210938 16.980469 L 26.210938 22.195312 L 22.914062 22.195312 Z M 22.910156 11.652344 " fill-opacity="1" fill-rule="nonzero"/><path fill="#1a2e4f" d="M 52.910156 15.699219 C 52.917969 15.433594 52.867188 15.167969 52.769531 14.921875 C 52.667969 14.675781 52.519531 14.449219 52.332031 14.261719 C 52.140625 14.074219 51.917969 13.925781 51.667969 13.828125 C 51.417969 13.730469 51.152344 13.683594 50.886719 13.6875 C 50.308594 13.652344 49.742188 13.84375 49.304688 14.21875 C 48.871094 14.597656 48.597656 15.125 48.554688 15.699219 Z M 55.707031 20.371094 C 55.15625 21.03125 54.46875 21.5625 53.6875 21.925781 C 52.90625 22.289062 52.054688 22.472656 51.195312 22.46875 C 47.894531 22.46875 45.253906 20.285156 45.253906 16.898438 C 45.253906 13.515625 47.894531 11.328125 51.195312 11.328125 C 54.277344 11.328125 56.210938 13.511719 56.210938 16.898438 L 56.210938 17.925781 L 48.554688 17.925781 C 48.648438 18.507812 48.953125 19.035156 49.410156 19.414062 C 49.867188 19.792969 50.445312 19.992188 51.039062 19.980469 C 51.507812 19.976562 51.972656 19.855469 52.382812 19.632812 C 52.792969 19.40625 53.140625 19.082031 53.394531 18.691406 Z M 55.707031 20.371094 " fill-opacity="1" fill-rule="nonzero"/><path fill="#1a2e4f" d="M 63.085938 14.203125 C 61.4375 14.203125 60.449219 15.292969 60.449219 16.886719 C 60.449219 18.480469 61.4375 19.574219 63.085938 19.574219 C 64.738281 19.574219 65.730469 18.484375 65.730469 16.886719 C 65.730469 15.292969 64.738281 14.203125 63.085938 14.203125 Z M 68.765625 22.195312 L 65.730469 22.195312 L 65.730469 20.796875 L 65.683594 20.796875 C 65.300781 21.304688 64.808594 21.722656 64.238281 22.007812 C 63.671875 22.296875 63.042969 22.449219 62.402344 22.457031 C 59.234375 22.457031 57.144531 20.1875 57.144531 16.976562 C 57.144531 14.027344 58.992188 11.316406 62.03125 11.316406 C 63.398438 11.316406 64.671875 11.6875 65.421875 12.71875 L 65.464844 12.71875 L 65.464844 6.636719 L 68.765625 6.636719 Z M 68.765625 22.195312 " fill-opacity="1" fill-rule="nonzero"/><g clip-path="url(#b1fb6ba43a)"><path fill="#1a2e4f" d="M 91.035156 22.203125 L 87.738281 22.203125 L 87.738281 17.074219 C 87.738281 15.851562 87.714844 14.277344 86.019531 14.277344 C 84.304688 14.277344 84.039062 15.609375 84.039062 16.984375 L 84.039062 22.203125 L 80.742188 22.203125 L 80.742188 11.65625 L 83.910156 11.65625 L 83.910156 13.097656 L 83.953125 13.097656 C 84.269531 12.558594 84.726562 12.117188 85.277344 11.816406 C 85.828125 11.515625 86.449219 11.371094 87.078125 11.394531 C 90.421875 11.394531 91.039062 13.578125 91.039062 16.417969 Z M 77.019531 10.214844 C 76.640625 10.214844 76.269531 10.101562 75.957031 9.894531 C 75.640625 9.683594 75.394531 9.386719 75.25 9.042969 C 75.105469 8.695312 75.066406 8.3125 75.140625 7.941406 C 75.214844 7.574219 75.398438 7.234375 75.664062 6.96875 C 75.933594 6.703125 76.273438 6.523438 76.644531 6.449219 C 77.015625 6.375 77.402344 6.414062 77.75 6.558594 C 78.101562 6.703125 78.398438 6.945312 78.609375 7.257812 C 78.820312 7.570312 78.933594 7.9375 78.933594 8.3125 C 78.933594 8.5625 78.882812 8.808594 78.789062 9.039062 C 78.691406 9.269531 78.550781 9.480469 78.371094 9.65625 C 78.195312 9.832031 77.984375 9.972656 77.75 10.070312 C 77.519531 10.164062 77.269531 10.214844 77.019531 10.214844 Z M 78.667969 22.203125 L 75.367188 22.203125 L 75.367188 11.65625 L 78.667969 11.65625 Z M 92.679688 3.371094 L 73.707031 3.371094 C 73.277344 3.367188 72.863281 3.53125 72.554688 3.832031 C 72.246094 4.128906 72.070312 4.539062 72.066406 4.964844 L 72.066406 23.878906 C 72.070312 24.304688 72.246094 24.710938 72.554688 25.011719 C 72.863281 25.3125 73.277344 25.476562 73.707031 25.472656 L 92.679688 25.472656 C 93.113281 25.476562 93.527344 25.3125 93.839844 25.011719 C 94.148438 24.714844 94.324219 24.304688 94.332031 23.878906 L 94.332031 4.964844 C 94.324219 4.535156 94.148438 4.128906 93.835938 3.828125 C 93.527344 3.53125 93.113281 3.363281 92.679688 3.371094 " fill-opacity="1" fill-rule="nonzero"/></g><g clip-path="url(#9bda53164c)"><path fill="#1a2e4f" d="M 96.863281 22.613281 C 96.460938 22.617188 96.078125 22.78125 95.796875 23.0625 C 95.515625 23.347656 95.359375 23.730469 95.359375 24.128906 C 95.363281 24.527344 95.523438 24.910156 95.808594 25.1875 C 96.09375 25.46875 96.476562 25.628906 96.878906 25.628906 C 97.28125 25.628906 97.664062 25.46875 97.949219 25.1875 C 98.234375 24.910156 98.394531 24.527344 98.398438 24.128906 C 98.398438 23.730469 98.242188 23.347656 97.960938 23.0625 C 97.679688 22.78125 97.292969 22.617188 96.894531 22.613281 Z M 96.863281 25.457031 C 96.601562 25.460938 96.34375 25.386719 96.121094 25.246094 C 95.898438 25.105469 95.726562 24.898438 95.621094 24.660156 C 95.515625 24.421875 95.484375 24.15625 95.53125 23.898438 C 95.578125 23.640625 95.703125 23.402344 95.886719 23.214844 C 96.066406 23.027344 96.304688 22.898438 96.558594 22.84375 C 96.816406 22.789062 97.085938 22.808594 97.332031 22.90625 C 97.574219 23 97.785156 23.167969 97.9375 23.382812 C 98.085938 23.597656 98.167969 23.851562 98.171875 24.113281 C 98.171875 24.121094 98.171875 24.128906 98.171875 24.132812 C 98.179688 24.476562 98.050781 24.808594 97.8125 25.058594 C 97.574219 25.304688 97.242188 25.449219 96.898438 25.457031 L 96.863281 25.457031 " fill-opacity="1" fill-rule="nonzero"/></g></svg>