<svg width="132" height="32" viewBox="0 0 132 32" fill="none" xmlns="http://www.w3.org/2000/svg">
<g clip-path="url(#clip0_24_265)">
<path d="M130.145 29.9343C130.226 29.9351 130.306 29.9194 130.381 29.888C130.456 29.8567 130.523 29.8105 130.579 29.7522C130.635 29.6939 130.678 29.6248 130.706 29.5492C130.734 29.4736 130.746 29.3931 130.742 29.3127C130.742 28.8718 130.474 28.6612 129.924 28.6612H129.036V30.9694H129.37V29.9632H129.78L129.79 29.9755L130.427 30.9694H130.784L130.099 29.9407L130.145 29.9343ZM129.758 29.7031H129.371V28.9228H129.862C130.116 28.9228 130.405 28.9639 130.405 29.2936C130.405 29.6727 130.112 29.7031 129.756 29.7031" fill="black"/>
<path d="M0 4.69623H4.93105V22.5268H14.0599V27.0442H0V4.69623Z" fill="black"/>
<path d="M16.2399 11.8916H20.9771V27.0359H16.2399V11.8916ZM18.6085 4.36261C19.152 4.36271 19.6832 4.52278 20.1351 4.8226C20.5869 5.12241 20.9391 5.5485 21.147 6.04698C21.3549 6.54546 21.4093 7.09395 21.3032 7.62309C21.1971 8.15224 20.9353 8.63827 20.551 9.01974C20.1667 9.4012 19.677 9.66097 19.1439 9.76619C18.6109 9.87141 18.0584 9.81736 17.5563 9.61087C17.0542 9.40438 16.625 9.05473 16.3231 8.60612C16.0211 8.15752 15.86 7.63011 15.86 7.09059C15.86 6.73231 15.9311 6.37753 16.0692 6.04652C16.2073 5.71552 16.4098 5.41477 16.665 5.16144C16.9203 4.90812 17.2233 4.70719 17.5567 4.57013C17.8902 4.43306 18.2476 4.36255 18.6085 4.36261Z" fill="black"/>
<path d="M40.7931 4.69275H45.5302V18.0485L50.8989 11.8847H56.7069L50.4894 18.896L56.5761 27.0422H50.6221L45.5934 19.5563H45.5312V27.0412H40.7941L40.7931 4.69275Z" fill="black"/>
<path d="M23.6037 11.8931H28.1528V13.9627H28.2174C28.6718 13.1899 29.3291 12.5541 30.1191 12.1233C30.9091 11.6924 31.8022 11.4827 32.7029 11.5164C37.5067 11.5164 38.3909 14.6539 38.3909 18.7299V27.0349H33.6538V19.6719C33.6538 17.9143 33.6212 15.6551 31.1865 15.6551C28.7242 15.6551 28.3443 17.569 28.3443 19.5441V27.0329H23.6071L23.6037 11.8931Z" fill="black"/>
<path d="M66.6829 17.7022C66.692 17.3207 66.6229 16.9413 66.48 16.5871C66.337 16.2329 66.1231 15.9111 65.8511 15.6413C65.5792 15.3716 65.2549 15.1594 64.898 15.0177C64.541 14.876 64.1588 14.8078 63.7745 14.817C62.9468 14.7659 62.1321 15.0397 61.5058 15.5794C60.8796 16.1191 60.4922 16.8815 60.427 17.7022H66.6829ZM70.6957 24.4132C69.9085 25.3608 68.9189 26.1228 67.7985 26.6439C66.6781 27.165 65.4549 27.4323 64.2177 27.4263C59.4805 27.4263 55.6879 24.2873 55.6879 19.4265C55.6879 14.5657 59.48 11.4282 64.2177 11.4282C68.6454 11.4282 71.422 14.5633 71.422 19.4265V20.901H60.427C60.5639 21.7372 61.0006 22.4961 61.6566 23.0379C62.3127 23.5797 63.1439 23.8679 63.9971 23.8494C64.6713 23.8452 65.3338 23.6737 65.9243 23.3505C66.5147 23.0273 67.0144 22.5626 67.3777 21.9987L70.6957 24.4132Z" fill="black"/>
<path d="M81.296 15.5523C78.9275 15.5523 77.5063 17.1222 77.5063 19.4098C77.5063 21.6974 78.927 23.2689 81.296 23.2689C83.6651 23.2689 85.0892 21.7014 85.0892 19.4098C85.0892 17.1183 83.6675 15.5523 81.296 15.5523ZM89.4503 27.0329H85.0892V25.0245H85.0245C84.4774 25.755 83.7678 26.3503 82.9509 26.7639C82.134 27.1775 81.232 27.3983 80.315 27.4091C75.7635 27.4091 72.7653 24.1482 72.7653 19.5367C72.7653 15.3015 75.4185 11.4125 79.7801 11.4125C81.7406 11.4125 83.5718 11.945 84.6461 13.4209H84.7082V4.69128H89.4498L89.4503 27.0329Z" fill="black"/>
<path d="M121.43 27.0417H116.693V19.6773C116.693 17.9212 116.662 15.6606 114.229 15.6606C111.762 15.6606 111.385 17.5739 111.385 19.5495V27.0413H106.648V11.897H111.195V13.9666H111.259C111.714 13.1942 112.372 12.5587 113.162 12.1279C113.952 11.6971 114.845 11.4871 115.746 11.5203C120.547 11.5203 121.432 14.6554 121.432 18.7339L121.43 27.0417ZM101.302 9.82692C100.759 9.82702 100.227 9.66706 99.7751 9.36728C99.323 9.0675 98.9706 8.64135 98.7624 8.14274C98.5543 7.64412 98.4997 7.09543 98.6057 6.56605C98.7117 6.03666 98.9734 5.55036 99.3578 5.16864C99.7422 4.78692 100.232 4.52692 100.765 4.42153C101.298 4.31614 101.851 4.37008 102.354 4.57654C102.856 4.783 103.285 5.1327 103.587 5.58142C103.89 6.03014 104.051 6.55773 104.051 7.09747C104.051 7.45584 103.98 7.81072 103.842 8.14183C103.704 8.47295 103.501 8.77383 103.246 9.02728C102.991 9.28073 102.688 9.4818 102.354 9.619C102.021 9.7562 101.663 9.82685 101.302 9.82692ZM103.671 27.0417H98.929V11.897H103.671V27.0417ZM123.792 0.00197918H96.5486C95.9302 -0.00494798 95.3344 0.232109 94.892 0.661057C94.4496 1.09001 94.1969 1.67575 94.1894 2.28958V29.4464C94.1967 30.0606 94.4492 30.6467 94.8916 31.0761C95.3339 31.5055 95.9299 31.743 96.5486 31.7365H123.792C124.412 31.7442 125.009 31.5074 125.454 31.078C125.898 30.6486 126.152 30.0618 126.161 29.4464V2.28762C126.152 1.67258 125.897 1.08616 125.453 0.657225C125.009 0.228287 124.412 -0.00809276 123.792 1.89813e-05" fill="black"/>
<path d="M129.799 27.633C129.222 27.6385 128.672 27.8703 128.267 28.2778C127.862 28.6853 127.637 29.2353 127.64 29.8075C127.642 30.3796 127.873 30.9274 128.282 31.331C128.69 31.7346 129.243 31.9612 129.82 31.9612C130.396 31.9612 130.949 31.7346 131.358 31.331C131.766 30.9274 131.997 30.3796 132 29.8075C132.003 29.2353 131.777 28.6853 131.372 28.2778C130.968 27.8703 130.417 27.6385 129.841 27.633H129.799ZM129.799 31.7134C129.421 31.7197 129.049 31.6145 128.732 31.4112C128.414 31.2079 128.164 30.9156 128.013 30.5713C127.863 30.227 127.819 29.8461 127.886 29.4768C127.954 29.1076 128.13 28.7665 128.393 28.4967C128.656 28.2269 128.993 28.0406 129.363 27.9612C129.732 27.8819 130.117 27.9131 130.469 28.051C130.821 28.1888 131.123 28.4271 131.339 28.7356C131.554 29.0442 131.672 29.4091 131.678 29.7844C131.678 29.7952 131.678 29.8055 131.678 29.8163C131.689 30.3086 131.502 30.7849 131.159 31.1405C130.816 31.4961 130.344 31.7018 129.849 31.7125H129.799" fill="black"/>
</g>
<defs>
<clipPath id="clip0_24_265">
<rect width="132" height="32" fill="white"/>
</clipPath>
</defs>
</svg>
