<svg width="32" height="28" xmlns="http://www.w3.org/2000/svg" xmlns:xlink="http://www.w3.org/1999/xlink" xml:space="preserve" overflow="hidden"><defs><clipPath id="clip0"><rect x="-60" y="1230" width="32" height="28"/></clipPath></defs><g clip-path="url(#clip0)" transform="translate(60 -1230)"><path d="M35.017 30.0109 55.6361 30.0109 55.6361 30.285 51.1188 37.5568 30.7962 37.5568 30.7962 37.5414Z" stroke="#B39348" stroke-width="0.0191458" fill="#B39348" fill-rule="evenodd" transform="matrix(1.00897 0 0 1 -84.3478 1220.44)"/><path d="M34.1261 10.7584 38.9154 19.5238 29.1003 36.5023 28.8818 36.3761 24.147 28.0203Z" stroke="#B39348" stroke-width="0.0191458" fill="#B39348" fill-rule="evenodd" transform="matrix(1.00897 0 0 1 -84.3478 1220.44)"/><path d="M45.4343 9.55972 45.8114 9.5891 55.8336 28.1641 46.5765 28.1049 45.716 28.0517 35.7877 9.65067Z" stroke="#B39348" stroke-width="0.0191458" fill="#B39348" fill-rule="evenodd" transform="matrix(1.00897 0 0 1 -84.3478 1220.44)"/></g></svg>