<svg width="32" height="32" xmlns="http://www.w3.org/2000/svg" xmlns:xlink="http://www.w3.org/1999/xlink" xml:space="preserve" overflow="hidden"><g transform="translate(59 -1147)"><path d="M-40 1153-46 1153C-46.5523 1153-47 1153.45-47 1154L-47 1156C-47 1156.55-46.5523 1157-46 1157L-40 1157C-39.4477 1157-39 1156.55-39 1156L-39 1154C-39 1153.45-39.4477 1153-40 1153Z" stroke="#B39348" stroke-width="2" stroke-linecap="round" stroke-linejoin="round" fill="none"/><path d="M-39 1155-37 1155C-36.4696 1155-35.9609 1155.21-35.5858 1155.59-35.2107 1155.96-35 1156.47-35 1157L-35 1171C-35 1171.53-35.2107 1172.04-35.5858 1172.41-35.9609 1172.79-36.4696 1173-37 1173L-49 1173C-49.5304 1173-50.0391 1172.79-50.4142 1172.41-50.7893 1172.04-51 1171.53-51 1171L-51 1157C-51 1156.47-50.7893 1155.96-50.4142 1155.59-50.0391 1155.21-49.5304 1155-49 1155L-47 1155M-43 1162-39 1162M-43 1167-39 1167M-47 1162-46.99 1162M-47 1167-46.99 1167" stroke="#B39348" stroke-width="2" stroke-linecap="round" stroke-linejoin="round" fill="none"/></g></svg>