<svg width="32" height="32" xmlns="http://www.w3.org/2000/svg" xmlns:xlink="http://www.w3.org/1999/xlink" xml:space="preserve" overflow="hidden"><g transform="translate(61 -986)"><path d="M-48 993-52 993C-53.1046 993-54 993.895-54 995L-54 999C-54 1000.1-53.1046 1001-52 1001L-48 1001C-46.8954 1001-46 1000.1-46 999L-46 995C-46 993.895-46.8954 993-48 993Z" stroke="#B39348" stroke-width="2" stroke-linecap="round" stroke-linejoin="round" fill="none"/><path d="M-50 1001-50 1005C-50 1005.53-49.7893 1006.04-49.4142 1006.41-49.0391 1006.79-48.5304 1007-48 1007L-44 1007" stroke="#B39348" stroke-width="2" stroke-linecap="round" stroke-linejoin="round" fill="none"/><path d="M-38 1003-42 1003C-43.1046 1003-44 1003.9-44 1005L-44 1009C-44 1010.1-43.1046 1011-42 1011L-38 1011C-36.8954 1011-36 1010.1-36 1009L-36 1005C-36 1003.9-36.8954 1003-38 1003Z" stroke="#B39348" stroke-width="2" stroke-linecap="round" stroke-linejoin="round" fill="none"/></g></svg>