<svg width="32" height="32" xmlns="http://www.w3.org/2000/svg" xmlns:xlink="http://www.w3.org/1999/xlink" xml:space="preserve" overflow="hidden"><g transform="translate(60 -334)"><path d="M-44 354C-41.7909 354-40 352.209-40 350-40 347.791-41.7909 346-44 346-46.2091 346-48 347.791-48 350-48 352.209-46.2091 354-44 354Z" stroke="#B39348" stroke-width="2" stroke-linecap="round" stroke-linejoin="round" fill="none"/><path d="M-44 340-44 342M-44 358-44 360M-51.07 342.93-49.66 344.34M-38.34 355.66-36.93 357.07M-54 350-52 350M-36 350-34 350M-49.66 355.66-51.07 357.07M-36.93 342.93-38.34 344.34" stroke="#B39348" stroke-width="2" stroke-linecap="round" stroke-linejoin="round" fill="none"/></g></svg>