<svg width="32" height="32" xmlns="http://www.w3.org/2000/svg" xmlns:xlink="http://www.w3.org/1999/xlink" xml:space="preserve" overflow="hidden"><g transform="translate(63 -910)"><path d="M-43.9999 926-53.3729 935.373C-53.5699 935.57-53.8038 935.726-54.0612 935.833-54.3186 935.94-54.5945 935.995-54.8731 935.995-55.4358 935.995-55.9755 935.771-56.3734 935.373-56.7714 934.976-56.995 934.436-56.9951 933.873-56.9952 933.311-56.7718 932.771-56.3739 932.373L-46.9999 923M-40.9999 929-36.9999 925" stroke="#B39348" stroke-width="2" stroke-linecap="round" stroke-linejoin="round" fill="none"/><path d="M-37.5 925.5-39.414 923.586C-39.7891 923.211-39.9999 922.702-40 922.172L-40 921.828C-40.0001 921.298-40.2109 920.789-40.586 920.414L-42.243 918.757C-43.3679 917.632-44.8933 917-46.484 917L-50 917-48.757 918.243C-47.6321 919.368-47.0001 920.894-47 922.485L-47 924-45 926-43.828 926C-43.2976 926-42.789 926.211-42.414 926.586L-40.5 928.5" stroke="#B39348" stroke-width="2" stroke-linecap="round" stroke-linejoin="round" fill="none"/></g></svg>