<svg width="32" height="32" xmlns="http://www.w3.org/2000/svg" xmlns:xlink="http://www.w3.org/1999/xlink" xml:space="preserve" overflow="hidden"><g transform="translate(66 -677)"><path d="M-50 690-50 694M-50 698-49.99 698M-40.27 699-48.27 685C-48.4444 684.692-48.6974 684.436-49.0031 684.258-49.3088 684.08-49.6562 683.986-50.01 683.986-50.3638 683.986-50.7113 684.08-51.0169 684.258-51.3226 684.436-51.5756 684.692-51.75 685L-59.75 699C-59.9263 699.305-60.0188 699.652-60.018 700.005-60.0172 700.357-59.9232 700.703-59.7456 701.008-59.5679 701.312-59.3129 701.565-59.0063 701.739-58.6998 701.913-58.3526 702.003-58 702L-42 702C-41.6491 702-41.3045 701.907-41.0007 701.731-40.697 701.556-40.4448 701.303-40.2695 700.999-40.0942 700.695-40.002 700.35-40.0021 700-40.0022 699.649-40.0946 699.304-40.27 699Z" stroke="#B39348" stroke-width="2" stroke-linecap="round" stroke-linejoin="round" fill="none"/></g></svg>