<svg width="32" height="32" xmlns="http://www.w3.org/2000/svg" xmlns:xlink="http://www.w3.org/1999/xlink" xml:space="preserve" overflow="hidden"><g transform="translate(60 -1457)"><path d="M-53.5 1478C-54.1992 1474.7-54.1992 1471.3-53.5 1468-53.4082 1467.67-53.2309 1467.36-52.9854 1467.11-52.74 1466.87-52.4348 1466.69-52.1 1466.6-46.7365 1465.71-41.2635 1465.71-35.9 1466.6-35.5652 1466.69-35.2601 1466.87-35.0146 1467.11-34.7692 1467.36-34.5918 1467.67-34.5 1468-33.8009 1471.3-33.8009 1474.7-34.5 1478-34.5918 1478.33-34.7692 1478.64-35.0146 1478.89-35.2601 1479.13-35.5652 1479.31-35.9 1479.4-41.2635 1480.29-46.7365 1480.29-52.1 1479.4-52.4348 1479.31-52.74 1479.13-52.9854 1478.89-53.2309 1478.64-53.4082 1478.33-53.5 1478Z" stroke="#1A2E4F" stroke-width="2" stroke-linecap="round" stroke-linejoin="round" fill="none"/><path d="M-46 1476-41 1473-46 1470-46 1476Z" stroke="#1A2E4F" stroke-width="2" stroke-linecap="round" stroke-linejoin="round" fill="none"/></g></svg>