<svg width="221" height="223" xmlns="http://www.w3.org/2000/svg" xmlns:xlink="http://www.w3.org/1999/xlink" xml:space="preserve" overflow="hidden"><defs><filter id="fx0" x="-10%" y="-10%" width="120%" height="120%" filterUnits="userSpaceOnUse" primitiveUnits="userSpaceOnUse"><feComponentTransfer color-interpolation-filters="sRGB"><feFuncR type="discrete" tableValues="0 0"/><feFuncG type="discrete" tableValues="0 0"/><feFuncB type="discrete" tableValues="0 0"/><feFuncA type="linear" slope="0.4" intercept="0"/></feComponentTransfer><feGaussianBlur stdDeviation="6.11111 6.11111"/></filter><clipPath id="clip1"><rect x="3966" y="1366" width="221" height="223"/></clipPath></defs><g clip-path="url(#clip1)" transform="translate(-3966 -1366)"><g filter="url(#fx0)" transform="translate(3965 1365)"><g><path d="M20 112.25C20 61.1636 60.9659 19.7499 111.5 19.7499 162.034 19.7499 203 61.1636 203 112.25 203 163.336 162.034 204.75 111.5 204.75 60.9659 204.75 20 163.336 20 112.25Z" fill="#FFFFFF" fill-rule="evenodd"/></g></g><path d="M3985 1463.5C3985 1412.41 4025.97 1371 4076.5 1371 4127.03 1371 4168 1412.41 4168 1463.5 4168 1514.59 4127.03 1556 4076.5 1556 4025.97 1556 3985 1514.59 3985 1463.5Z" fill="#FFFFFF" fill-rule="evenodd"/></g></svg>