<svg width="1478" height="240" xmlns="http://www.w3.org/2000/svg" xmlns:xlink="http://www.w3.org/1999/xlink" xml:space="preserve" overflow="hidden"><defs><filter id="fx0" x="-10%" y="-10%" width="120%" height="120%" filterUnits="userSpaceOnUse" primitiveUnits="userSpaceOnUse"><feComponentTransfer color-interpolation-filters="sRGB"><feFuncR type="discrete" tableValues="0 0"/><feFuncG type="discrete" tableValues="0 0"/><feFuncB type="discrete" tableValues="0 0"/><feFuncA type="linear" slope="0.4" intercept="0"/></feComponentTransfer><feGaussianBlur stdDeviation="6.11111 6.11111"/></filter><clipPath id="clip1"><rect x="-3315" y="14792" width="1478" height="240"/></clipPath></defs><g clip-path="url(#clip1)" transform="translate(3315 -14792)"><g filter="url(#fx0)" transform="translate(-3316 14791)"><g><path d="M20.0002 53.4179C20.0002 34.8237 35.0738 19.75 53.668 19.75L1426.33 19.75C1444.93 19.75 1460 34.8237 1460 53.4179L1460 188.082C1460 206.676 1444.93 221.75 1426.33 221.75L53.668 221.75C35.0738 221.75 20.0002 206.676 20.0002 188.082Z" fill="#F9F6F1" fill-rule="evenodd"/></g></g><path d="M-3296 14830.7C-3296 14812.1-3280.93 14797-3262.33 14797L-1889.67 14797C-1871.07 14797-1856 14812.1-1856 14830.7L-1856 14965.3C-1856 14983.9-1871.07 14999-1889.67 14999L-3262.33 14999C-3280.93 14999-3296 14983.9-3296 14965.3Z" fill="#F9F6F1" fill-rule="evenodd"/></g></svg>