<svg width="3926" height="1212" xmlns="http://www.w3.org/2000/svg" xmlns:xlink="http://www.w3.org/1999/xlink" xml:space="preserve" overflow="hidden"><defs><filter id="fx0" x="-10%" y="-10%" width="120%" height="120%" filterUnits="userSpaceOnUse" primitiveUnits="userSpaceOnUse"><feComponentTransfer color-interpolation-filters="sRGB"><feFuncR type="discrete" tableValues="0 0"/><feFuncG type="discrete" tableValues="0 0"/><feFuncB type="discrete" tableValues="0 0"/><feFuncA type="linear" slope="0.4" intercept="0"/></feComponentTransfer><feGaussianBlur stdDeviation="6.11111 6.11111"/></filter><filter id="fx1" x="-10%" y="-10%" width="120%" height="120%" filterUnits="userSpaceOnUse" primitiveUnits="userSpaceOnUse"><feComponentTransfer color-interpolation-filters="sRGB"><feFuncR type="discrete" tableValues="0 0"/><feFuncG type="discrete" tableValues="0 0"/><feFuncB type="discrete" tableValues="0 0"/><feFuncA type="linear" slope="0.4" intercept="0"/></feComponentTransfer><feGaussianBlur stdDeviation="6.11111 6.11111"/></filter><clipPath id="clip2"><rect x="-4700" y="7050" width="3926" height="1212"/></clipPath></defs><g clip-path="url(#clip2)" transform="translate(4700 -7050)"><g filter="url(#fx0)" transform="translate(-4701 7049)"><g><path d="M0 195.672C-3.09371e-14 87.6052 87.605-3.09372e-14 195.671-6.18744e-14L3692.33 0C3800.39-6.18744e-14 3888 87.6052 3888 195.672L3888 978.328C3888 1086.39 3800.39 1174 3692.33 1174L195.671 1174C87.605 1174 0 1086.39 0 978.328Z" fill="#F9F6F1" fill-rule="evenodd" transform="matrix(-1 1.22465e-16 1.22465e-16 1 3908 19.75)"/></g></g><path d="M0 195.672C-3.09371e-14 87.6052 87.605-3.09372e-14 195.671-6.18744e-14L3692.33 0C3800.39-6.18744e-14 3888 87.6052 3888 195.672L3888 978.328C3888 1086.39 3800.39 1174 3692.33 1174L195.671 1174C87.605 1174 0 1086.39 0 978.328Z" fill="#F9F6F1" fill-rule="evenodd" transform="matrix(-1 1.22465e-16 1.22465e-16 1 -793 7055)"/><g filter="url(#fx1)" transform="translate(-2894 7093)"><g><path d="M181.079 0 2041 0 2041 1130 181.079 1130C81.0718 1130 0 1045.68 0 941.663L0 188.337C0 84.3213 81.0718 0 181.079 0Z" fill="#F9F6F1" fill-rule="evenodd" transform="matrix(-1 1.22465e-16 1.22465e-16 1 2061 19.75)"/></g></g><path d="M181.079 0 2041 0 2041 1130 181.079 1130C81.0718 1130 0 1045.68 0 941.663L0 188.337C0 84.3213 81.0718 0 181.079 0Z" fill="#F9F6F1" fill-rule="evenodd" transform="matrix(-1 1.22465e-16 1.22465e-16 1 -833 7099)"/></g></svg>