<svg width="3926" height="1212" xmlns="http://www.w3.org/2000/svg" xmlns:xlink="http://www.w3.org/1999/xlink" xml:space="preserve" overflow="hidden"><defs><filter id="fx0" x="-10%" y="-10%" width="120%" height="120%" filterUnits="userSpaceOnUse" primitiveUnits="userSpaceOnUse"><feComponentTransfer color-interpolation-filters="sRGB"><feFuncR type="discrete" tableValues="0 0"/><feFuncG type="discrete" tableValues="0 0"/><feFuncB type="discrete" tableValues="0 0"/><feFuncA type="linear" slope="0.4" intercept="0"/></feComponentTransfer><feGaussianBlur stdDeviation="6.11111 6.11111"/></filter><filter id="fx1" x="-10%" y="-10%" width="120%" height="120%" filterUnits="userSpaceOnUse" primitiveUnits="userSpaceOnUse"><feComponentTransfer color-interpolation-filters="sRGB"><feFuncR type="discrete" tableValues="0 0"/><feFuncG type="discrete" tableValues="0 0"/><feFuncB type="discrete" tableValues="0 0"/><feFuncA type="linear" slope="0.4" intercept="0"/></feComponentTransfer><feGaussianBlur stdDeviation="6.11111 6.11111"/></filter><clipPath id="clip2"><rect x="-4700" y="5498" width="3926" height="1212"/></clipPath></defs><g clip-path="url(#clip2)" transform="translate(4700 -5498)"><g filter="url(#fx0)" transform="translate(-4701 5497)"><g><path d="M20 215.422C20 107.355 107.605 19.75 215.671 19.75L3712.33 19.75C3820.39 19.75 3908 107.355 3908 215.422L3908 998.078C3908 1106.14 3820.39 1193.75 3712.33 1193.75L215.671 1193.75C107.605 1193.75 20 1106.14 20 998.078Z" fill="#F9F6F1" fill-rule="evenodd"/></g></g><path d="M-4681 5698.67C-4681 5590.6-4593.4 5503-4485.33 5503L-988.672 5503C-880.605 5503-793 5590.6-793 5698.67L-793 6481.33C-793 6589.39-880.605 6677-988.672 6677L-4485.33 6677C-4593.4 6677-4681 6589.39-4681 6481.33Z" fill="#F9F6F1" fill-rule="evenodd"/><g filter="url(#fx1)" transform="translate(-4661 5540)"><g><path d="M201.079 19.75 2061 19.75 2061 1150.75 201.079 1150.75C101.072 1150.75 20 1066.35 20 962.246L20 208.254C20 104.146 101.072 19.75 201.079 19.75Z" fill="#F9F6F1" fill-rule="evenodd"/></g></g><path d="M-4459.92 5546-2600 5546-2600 6677-4459.92 6677C-4559.93 6677-4641 6592.6-4641 6488.5L-4641 5734.5C-4641 5630.4-4559.93 5546-4459.92 5546Z" fill="#F9F6F1" fill-rule="evenodd"/></g></svg>