<svg width="221" height="223" xmlns="http://www.w3.org/2000/svg" xmlns:xlink="http://www.w3.org/1999/xlink" xml:space="preserve" overflow="hidden"><defs><filter id="fx0" x="-10%" y="-10%" width="120%" height="120%" filterUnits="userSpaceOnUse" primitiveUnits="userSpaceOnUse"><feComponentTransfer color-interpolation-filters="sRGB"><feFuncR type="discrete" tableValues="0 0"/><feFuncG type="discrete" tableValues="0 0"/><feFuncB type="discrete" tableValues="0 0"/><feFuncA type="linear" slope="0.4" intercept="0"/></feComponentTransfer><feGaussianBlur stdDeviation="6.11111 6.11111"/></filter><clipPath id="clip1"><rect x="528" y="872" width="221" height="223"/></clipPath></defs><g clip-path="url(#clip1)" transform="translate(-528 -872)"><g filter="url(#fx0)" transform="translate(527 871)"><g><path d="M19.9999 112.25C19.9999 61.1635 60.9659 19.7499 111.5 19.7499 162.034 19.7499 203 61.1635 203 112.25 203 163.336 162.034 204.75 111.5 204.75 60.9659 204.75 19.9999 163.336 19.9999 112.25Z" fill="#FFFFFF" fill-rule="evenodd"/></g></g><path d="M547 969.5C547 918.414 587.966 877 638.5 877 689.034 877 730 918.414 730 969.5 730 1020.59 689.034 1062 638.5 1062 587.966 1062 547 1020.59 547 969.5Z" fill="#FFFFFF" fill-rule="evenodd"/><g><g><g><path d="M665.602 952.002 648.264 934.664C647.781 934.18 647.128 933.906 646.443 933.906L612.219 933.906C610.793 933.906 609.641 935.058 609.641 936.484L609.641 1003.52C609.641 1004.94 610.793 1006.09 612.219 1006.09L663.781 1006.09C665.207 1006.09 666.359 1004.94 666.359 1003.52L666.359 953.83C666.359 953.146 666.085 952.485 665.602 952.002ZM660.414 955.015 645.251 955.015 645.251 939.852 660.414 955.015ZM660.559 1000.29 615.441 1000.29 615.441 939.707 639.772 939.707 639.772 957.109C639.772 958.007 640.129 958.868 640.763 959.502 641.398 960.137 642.259 960.493 643.156 960.493L660.559 960.493 660.559 1000.29ZM637.355 978.54 622.531 978.54C622.177 978.54 621.887 978.83 621.887 979.185L621.887 983.052C621.887 983.406 622.177 983.696 622.531 983.696L637.355 983.696C637.71 983.696 638 983.406 638 983.052L638 979.185C638 978.83 637.71 978.54 637.355 978.54ZM621.887 968.228 621.887 972.095C621.887 972.449 622.177 972.739 622.531 972.739L653.469 972.739C653.823 972.739 654.113 972.449 654.113 972.095L654.113 968.228C654.113 967.873 653.823 967.583 653.469 967.583L622.531 967.583C622.177 967.583 621.887 967.873 621.887 968.228Z" fill="#B39348"/></g></g></g></g></svg>