<svg width="222" height="223" xmlns="http://www.w3.org/2000/svg" xmlns:xlink="http://www.w3.org/1999/xlink" xml:space="preserve" overflow="hidden"><defs><filter id="fx0" x="-10%" y="-10%" width="120%" height="120%" filterUnits="userSpaceOnUse" primitiveUnits="userSpaceOnUse"><feComponentTransfer color-interpolation-filters="sRGB"><feFuncR type="discrete" tableValues="0 0"/><feFuncG type="discrete" tableValues="0 0"/><feFuncB type="discrete" tableValues="0 0"/><feFuncA type="linear" slope="0.4" intercept="0"/></feComponentTransfer><feGaussianBlur stdDeviation="6.11111 6.11111"/></filter><clipPath id="clip1"><rect x="1309" y="872" width="222" height="223"/></clipPath></defs><g clip-path="url(#clip1)" transform="translate(-1309 -872)"><g filter="url(#fx0)" transform="translate(1308 871)"><g><path d="M19.9999 112.25C19.9999 61.1635 61.1897 19.7499 112 19.7499 162.81 19.7499 204 61.1635 204 112.25 204 163.336 162.81 204.75 112 204.75 61.1897 204.75 19.9999 163.336 19.9999 112.25Z" fill="#FFFFFF" fill-rule="evenodd"/></g></g><path d="M1328 969.5C1328 918.414 1369.19 877 1420 877 1470.81 877 1512 918.414 1512 969.5 1512 1020.59 1470.81 1062 1420 1062 1369.19 1062 1328 1020.59 1328 969.5Z" fill="#FFFFFF" fill-rule="evenodd"/><g><g><g><path d="M1420 973.438 1420 935.625 1447.5 949.375 1420 963.125" stroke="#B39348" stroke-width="6.875" stroke-linecap="round" stroke-linejoin="round" fill="none"/><path d="M1449.43 963.888C1451.26 969.526 1451.43 975.571 1449.92 981.304 1448.41 987.036 1445.29 992.215 1440.93 996.224 1436.56 1000.23 1431.13 1002.9 1425.29 1003.92 1419.45 1004.93 1413.45 1004.25 1407.98 1001.94 1402.52 999.642 1397.84 995.819 1394.49 990.931 1391.13 986.042 1389.26 980.294 1389.08 974.369 1388.9 968.444 1390.43 962.593 1393.48 957.511 1396.53 952.43 1400.97 948.331 1406.29 945.704" stroke="#B39348" stroke-width="6.875" stroke-linecap="round" stroke-linejoin="round" fill="none"/><path d="M1406.26 963.115C1404.53 965.408 1403.41 968.095 1402.99 970.932 1402.58 973.77 1402.88 976.666 1403.86 979.359 1404.85 982.051 1406.5 984.453 1408.65 986.347 1410.8 988.24 1413.4 989.565 1416.19 990.2 1418.99 990.834 1421.9 990.759 1424.66 989.981 1427.42 989.203 1429.94 987.746 1432 985.744 1434.05 983.742 1435.57 981.258 1436.42 978.518 1437.27 975.779 1437.41 972.87 1436.85 970.058" stroke="#B39348" stroke-width="6.875" stroke-linecap="round" stroke-linejoin="round" fill="none"/></g></g></g></g></svg>