<svg width="221" height="223" xmlns="http://www.w3.org/2000/svg" xmlns:xlink="http://www.w3.org/1999/xlink" xml:space="preserve" overflow="hidden"><defs><filter id="fx0" x="-10%" y="-10%" width="120%" height="120%" filterUnits="userSpaceOnUse" primitiveUnits="userSpaceOnUse"><feComponentTransfer color-interpolation-filters="sRGB"><feFuncR type="discrete" tableValues="0 0"/><feFuncG type="discrete" tableValues="0 0"/><feFuncB type="discrete" tableValues="0 0"/><feFuncA type="linear" slope="0.4" intercept="0"/></feComponentTransfer><feGaussianBlur stdDeviation="6.11111 6.11111"/></filter><clipPath id="clip1"><rect x="2612" y="867" width="221" height="223"/></clipPath></defs><g clip-path="url(#clip1)" transform="translate(-2612 -867)"><g filter="url(#fx0)" transform="translate(2611 866)"><g><path d="M20 112.25C20 61.1638 60.9659 19.7501 111.5 19.7501 162.034 19.7501 203 61.1638 203 112.25 203 163.336 162.034 204.75 111.5 204.75 60.9659 204.75 20 163.336 20 112.25Z" fill="#FFFFFF" fill-rule="evenodd"/></g></g><path d="M2631 964.5C2631 913.414 2671.97 872 2722.5 872 2773.03 872 2814 913.414 2814 964.5 2814 1015.59 2773.03 1057 2722.5 1057 2671.97 1057 2631 1015.59 2631 964.5Z" fill="#FFFFFF" fill-rule="evenodd"/><g><g><g><path d="M2746.06 934.062 2697.94 934.062C2694.14 934.062 2691.06 937.14 2691.06 940.937L2691.06 989.062C2691.06 992.859 2694.14 995.937 2697.94 995.937L2746.06 995.937C2749.86 995.937 2752.94 992.859 2752.94 989.062L2752.94 940.937C2752.94 937.14 2749.86 934.062 2746.06 934.062Z" stroke="#B39348" stroke-width="6.875" stroke-linecap="round" stroke-linejoin="round" fill="none"/><path d="M2711.69 961.562C2715.48 961.562 2718.56 958.484 2718.56 954.687 2718.56 950.89 2715.48 947.812 2711.69 947.812 2707.89 947.812 2704.81 950.89 2704.81 954.687 2704.81 958.484 2707.89 961.562 2711.69 961.562Z" stroke="#B39348" stroke-width="6.875" stroke-linecap="round" stroke-linejoin="round" fill="none"/><path d="M2752.94 975.312 2742.33 964.704C2741.04 963.416 2739.29 962.691 2737.47 962.691 2735.65 962.691 2733.9 963.416 2732.61 964.704L2701.38 995.937" stroke="#B39348" stroke-width="6.875" stroke-linecap="round" stroke-linejoin="round" fill="none"/></g></g></g></g></svg>