<svg width="221" height="223" xmlns="http://www.w3.org/2000/svg" xmlns:xlink="http://www.w3.org/1999/xlink" xml:space="preserve" overflow="hidden"><defs><filter id="fx0" x="-10%" y="-10%" width="120%" height="120%" filterUnits="userSpaceOnUse" primitiveUnits="userSpaceOnUse"><feComponentTransfer color-interpolation-filters="sRGB"><feFuncR type="discrete" tableValues="0 0"/><feFuncG type="discrete" tableValues="0 0"/><feFuncB type="discrete" tableValues="0 0"/><feFuncA type="linear" slope="0.4" intercept="0"/></feComponentTransfer><feGaussianBlur stdDeviation="6.11111 6.11111"/></filter><clipPath id="clip1"><rect x="2872" y="872" width="221" height="223"/></clipPath></defs><g clip-path="url(#clip1)" transform="translate(-2872 -872)"><g filter="url(#fx0)" transform="translate(2871 871)"><g><path d="M20 112.25C20 61.1635 60.966 19.7499 111.5 19.7499 162.034 19.7499 203 61.1635 203 112.25 203 163.336 162.034 204.75 111.5 204.75 60.966 204.75 20 163.336 20 112.25Z" fill="#FFFFFF" fill-rule="evenodd"/></g></g><path d="M2891 969.5C2891 918.414 2931.97 877 2982.5 877 3033.03 877 3074 918.414 3074 969.5 3074 1020.59 3033.03 1062 2982.5 1062 2931.97 1062 2891 1020.59 2891 969.5Z" fill="#FFFFFF" fill-rule="evenodd"/><g><g><g><path d="M3007.06 939.063 2958.94 939.063C2955.14 939.063 2952.06 942.141 2952.06 945.938L2952.06 994.063C2952.06 997.86 2955.14 1000.94 2958.94 1000.94L3007.06 1000.94C3010.86 1000.94 3013.94 997.86 3013.94 994.063L3013.94 945.938C3013.94 942.141 3010.86 939.063 3007.06 939.063Z" stroke="#B39348" stroke-width="6.875" stroke-linecap="round" stroke-linejoin="round" fill="none"/><path d="M2972.69 970 2979.56 976.875 2993.31 963.125" stroke="#B39348" stroke-width="6.875" stroke-linecap="round" stroke-linejoin="round" fill="none"/></g></g></g></g></svg>