<svg width="222" height="223" xmlns="http://www.w3.org/2000/svg" xmlns:xlink="http://www.w3.org/1999/xlink" xml:space="preserve" overflow="hidden"><defs><filter id="fx0" x="-10%" y="-10%" width="120%" height="120%" filterUnits="userSpaceOnUse" primitiveUnits="userSpaceOnUse"><feComponentTransfer color-interpolation-filters="sRGB"><feFuncR type="discrete" tableValues="0 0"/><feFuncG type="discrete" tableValues="0 0"/><feFuncB type="discrete" tableValues="0 0"/><feFuncA type="linear" slope="0.4" intercept="0"/></feComponentTransfer><feGaussianBlur stdDeviation="6.11111 6.11111"/></filter><clipPath id="clip1"><rect x="2351" y="866" width="222" height="223"/></clipPath></defs><g clip-path="url(#clip1)" transform="translate(-2351 -866)"><g filter="url(#fx0)" transform="translate(2350 865)"><g><path d="M20.0002 112.25C20.0002 61.1637 61.19 19.7501 112 19.7501 162.81 19.7501 204 61.1637 204 112.25 204 163.336 162.81 204.75 112 204.75 61.19 204.75 20.0002 163.336 20.0002 112.25Z" fill="#FFFFFF" fill-rule="evenodd"/></g></g><path d="M2370 963.5C2370 912.414 2411.19 871 2462 871 2512.81 871 2554 912.414 2554 963.5 2554 1014.59 2512.81 1056 2462 1056 2411.19 1056 2370 1014.59 2370 963.5Z" fill="#FFFFFF" fill-rule="evenodd"/><g><g><g><path d="M2472.31 929.625 2451.69 929.625C2449.79 929.625 2448.25 931.164 2448.25 933.062L2448.25 939.937C2448.25 941.836 2449.79 943.375 2451.69 943.375L2472.31 943.375C2474.21 943.375 2475.75 941.836 2475.75 939.937L2475.75 933.062C2475.75 931.164 2474.21 929.625 2472.31 929.625Z" stroke="#B39348" stroke-width="6.875" stroke-linecap="round" stroke-linejoin="round" fill="none"/><path d="M2475.75 936.5 2482.62 936.5C2484.45 936.5 2486.2 937.224 2487.49 938.514 2488.78 939.803 2489.5 941.552 2489.5 943.375L2489.5 991.5C2489.5 993.323 2488.78 995.072 2487.49 996.361 2486.2 997.651 2484.45 998.375 2482.62 998.375L2441.38 998.375C2439.55 998.375 2437.8 997.651 2436.51 996.361 2435.22 995.072 2434.5 993.323 2434.5 991.5L2434.5 943.375C2434.5 941.552 2435.22 939.803 2436.51 938.514 2437.8 937.224 2439.55 936.5 2441.38 936.5L2448.25 936.5M2462 960.562 2475.75 960.562M2462 977.75 2475.75 977.75M2448.25 960.562 2448.28 960.562M2448.25 977.75 2448.28 977.75" stroke="#B39348" stroke-width="6.875" stroke-linecap="round" stroke-linejoin="round" fill="none"/></g></g></g></g></svg>