<svg width="222" height="223" xmlns="http://www.w3.org/2000/svg" xmlns:xlink="http://www.w3.org/1999/xlink" xml:space="preserve" overflow="hidden"><defs><filter id="fx0" x="-10%" y="-10%" width="120%" height="120%" filterUnits="userSpaceOnUse" primitiveUnits="userSpaceOnUse"><feComponentTransfer color-interpolation-filters="sRGB"><feFuncR type="discrete" tableValues="0 0"/><feFuncG type="discrete" tableValues="0 0"/><feFuncB type="discrete" tableValues="0 0"/><feFuncA type="linear" slope="0.4" intercept="0"/></feComponentTransfer><feGaussianBlur stdDeviation="6.11111 6.11111"/></filter><clipPath id="clip1"><rect x="1830" y="872" width="222" height="223"/></clipPath></defs><g clip-path="url(#clip1)" transform="translate(-1830 -872)"><g filter="url(#fx0)" transform="translate(1829 871)"><g><path d="M20 112.25C20 61.1635 61.1898 19.7499 112 19.7499 162.81 19.7499 204 61.1635 204 112.25 204 163.336 162.81 204.75 112 204.75 61.1898 204.75 20 163.336 20 112.25Z" fill="#FFFFFF" fill-rule="evenodd"/></g></g><path d="M1849 969.5C1849 918.414 1890.19 877 1941 877 1991.81 877 2033 918.414 2033 969.5 2033 1020.59 1991.81 1062 1941 1062 1890.19 1062 1849 1020.59 1849 969.5Z" fill="#FFFFFF" fill-rule="evenodd"/><g><g><g><path d="M1930.69 939.063 1916.94 939.063C1913.14 939.063 1910.06 942.141 1910.06 945.938L1910.06 959.688C1910.06 963.485 1913.14 966.563 1916.94 966.563L1930.69 966.563C1934.48 966.563 1937.56 963.485 1937.56 959.688L1937.56 945.938C1937.56 942.141 1934.48 939.063 1930.69 939.063Z" stroke="#B39348" stroke-width="6.875" stroke-linecap="round" stroke-linejoin="round" fill="none"/><path d="M1923.81 966.563 1923.81 980.313C1923.81 982.136 1924.54 983.884 1925.83 985.174 1927.12 986.463 1928.86 987.188 1930.69 987.188L1944.44 987.188" stroke="#B39348" stroke-width="6.875" stroke-linecap="round" stroke-linejoin="round" fill="none"/><path d="M1965.06 973.438 1951.31 973.438C1947.52 973.438 1944.44 976.516 1944.44 980.313L1944.44 994.063C1944.44 997.86 1947.52 1000.94 1951.31 1000.94L1965.06 1000.94C1968.86 1000.94 1971.94 997.86 1971.94 994.063L1971.94 980.313C1971.94 976.516 1968.86 973.438 1965.06 973.438Z" stroke="#B39348" stroke-width="6.875" stroke-linecap="round" stroke-linejoin="round" fill="none"/></g></g></g></g></svg>