<svg width="221" height="223" xmlns="http://www.w3.org/2000/svg" xmlns:xlink="http://www.w3.org/1999/xlink" xml:space="preserve" overflow="hidden"><defs><filter id="fx0" x="-10%" y="-10%" width="120%" height="120%" filterUnits="userSpaceOnUse" primitiveUnits="userSpaceOnUse"><feComponentTransfer color-interpolation-filters="sRGB"><feFuncR type="discrete" tableValues="0 0"/><feFuncG type="discrete" tableValues="0 0"/><feFuncB type="discrete" tableValues="0 0"/><feFuncA type="linear" slope="0.4" intercept="0"/></feComponentTransfer><feGaussianBlur stdDeviation="6.11111 6.11111"/></filter><clipPath id="clip1"><rect x="1570" y="872" width="221" height="223"/></clipPath></defs><g clip-path="url(#clip1)" transform="translate(-1570 -872)"><g filter="url(#fx0)" transform="translate(1569 871)"><g><path d="M20.0001 112.25C20.0001 61.1635 60.966 19.7499 111.5 19.7499 162.034 19.7499 203 61.1635 203 112.25 203 163.336 162.034 204.75 111.5 204.75 60.966 204.75 20.0001 163.336 20.0001 112.25Z" fill="#FFFFFF" fill-rule="evenodd"/></g></g><path d="M1589 969.5C1589 918.414 1629.97 877 1680.5 877 1731.03 877 1772 918.414 1772 969.5 1772 1020.59 1731.03 1062 1680.5 1062 1629.97 1062 1589 1020.59 1589 969.5Z" fill="#FFFFFF" fill-rule="evenodd"/><g><g><g><path d="M1690.31 970 1658.09 1002.22C1657.42 1002.9 1656.61 1003.43 1655.73 1003.8 1654.84 1004.17 1653.89 1004.36 1652.94 1004.36 1651 1004.36 1649.15 1003.59 1647.78 1002.22 1646.41 1000.85 1645.64 998.999 1645.64 997.065 1645.64 995.131 1646.41 993.275 1647.78 991.907L1680 959.688M1700.63 980.313 1714.38 966.563" stroke="#B39348" stroke-width="6.875" stroke-linecap="round" stroke-linejoin="round" fill="none"/><path d="M1712.66 968.281 1706.08 961.702C1704.79 960.413 1704.06 958.665 1704.06 956.841L1704.06 955.659C1704.06 953.836 1703.34 952.087 1702.05 950.798L1696.35 945.102C1692.49 941.236 1687.24 939.064 1681.77 939.063L1669.69 939.063 1673.96 943.335C1677.83 947.203 1680 952.448 1680 957.917L1680 963.125 1686.87 970 1690.9 970C1692.73 970 1694.48 970.725 1695.76 972.014L1702.34 978.594" stroke="#B39348" stroke-width="6.875" stroke-linecap="round" stroke-linejoin="round" fill="none"/></g></g></g></g></svg>