<svg width="221" height="223" xmlns="http://www.w3.org/2000/svg" xmlns:xlink="http://www.w3.org/1999/xlink" xml:space="preserve" overflow="hidden"><defs><filter id="fx0" x="-10%" y="-10%" width="120%" height="120%" filterUnits="userSpaceOnUse" primitiveUnits="userSpaceOnUse"><feComponentTransfer color-interpolation-filters="sRGB"><feFuncR type="discrete" tableValues="0 0"/><feFuncG type="discrete" tableValues="0 0"/><feFuncB type="discrete" tableValues="0 0"/><feFuncA type="linear" slope="0.4" intercept="0"/></feComponentTransfer><feGaussianBlur stdDeviation="6.11111 6.11111"/></filter><clipPath id="clip1"><rect x="788" y="872" width="221" height="223"/></clipPath></defs><g clip-path="url(#clip1)" transform="translate(-788 -872)"><g filter="url(#fx0)" transform="translate(787 871)"><g><path d="M20.0001 112.25C20.0001 61.1635 60.966 19.7499 111.5 19.7499 162.034 19.7499 203 61.1635 203 112.25 203 163.336 162.034 204.75 111.5 204.75 60.966 204.75 20.0001 163.336 20.0001 112.25Z" fill="#FFFFFF" fill-rule="evenodd"/></g></g><path d="M807 969.5C807 918.414 847.966 877 898.5 877 949.034 877 990 918.414 990 969.5 990 1020.59 949.034 1062 898.5 1062 847.966 1062 807 1020.59 807 969.5Z" fill="#FFFFFF" fill-rule="evenodd"/><g><g><g><path d="M899 959.688 899 973.438M899 987.188 899.034 987.188M932.447 990.625 904.947 942.5C904.347 941.442 903.478 940.562 902.427 939.95 901.376 939.337 900.182 939.015 898.966 939.015 897.749 939.015 896.555 939.337 895.504 939.95 894.453 940.562 893.584 941.442 892.984 942.5L865.484 990.625C864.878 991.675 864.56 992.866 864.563 994.078 864.566 995.29 864.889 996.48 865.5 997.527 866.11 998.574 866.987 999.441 868.041 1000.04 869.094 1000.64 870.288 1000.95 871.5 1000.94L926.5 1000.94C927.706 1000.94 928.891 1000.62 929.935 1000.01 930.979 999.41 931.846 998.542 932.448 997.497 933.051 996.452 933.368 995.267 933.368 994.061 933.367 992.855 933.05 991.67 932.447 990.625Z" stroke="#B39348" stroke-width="6.875" stroke-linecap="round" stroke-linejoin="round" fill="none"/></g></g></g></g></svg>